<?xml version="1.0" encoding="UTF-8"?>
<svg xmlns="http://www.w3.org/2000/svg" xmlns:xlink="http://www.w3.org/1999/xlink" width="300pt" height="300pt" viewBox="0 0 300 300" version="1.1">
<g id="surface1">
<rect x="0" y="0" width="300" height="300" style="fill:rgb(100%,100%,100%);fill-opacity:1;stroke:none;"/>
<path style=" stroke:none;fill-rule:nonzero;fill:rgb(59.568787%,51.756287%,18.821716%);fill-opacity:1;" d="M 136.421875 4.640625 C 167.421875 1.660156 199.351563 8.871094 225.949219 25.101563 C 251.019531 40.199219 271.320313 63.03125 283.429688 89.671875 C 296.230469 117.511719 299.628906 149.421875 293.621094 179.421875 C 287.628906 209.511719 271.710938 237.480469 249.03125 258.140625 C 226.339844 279.089844 196.800781 292.441406 166.078125 295.699219 C 146.261719 297.550781 126.011719 296.058594 106.980469 290.019531 C 74.441406 280.039063 45.730469 258.199219 27.351563 229.550781 C 11.890625 205.761719 3.667969 177.339844 4.058594 148.960938 C 4.140625 116.511719 15.660156 84.269531 35.988281 59 C 60.320313 28.308594 97.390625 8.160156 136.421875 4.640625 "/>
<path style=" stroke:none;fill-rule:nonzero;fill:rgb(47.851563%,41.575623%,16.479492%);fill-opacity:1;" d="M 147.390625 8.53125 C 173.390625 8.078125 199.550781 14.710938 221.96875 27.960938 C 246.148438 42.160156 266.039063 63.671875 278.070313 89.019531 C 291.058594 115.460938 294.890625 146.078125 289.839844 175.03125 C 283.21875 213.820313 259.371094 249.210938 226.019531 270.058594 C 202.929688 284.859375 175.359375 292.53125 147.960938 291.929688 C 121.199219 291.75 94.648438 283.410156 72.351563 268.667969 C 49.519531 253.609375 31.03125 231.917969 20.261719 206.738281 C 7.839844 178.398438 5.199219 145.929688 12.761719 115.929688 C 20.140625 85.550781 38.230469 58.070313 62.78125 38.789063 C 86.667969 19.800781 116.910156 9.148438 147.390625 8.53125 "/>
<path style=" stroke:none;fill-rule:nonzero;fill:rgb(72.851563%,62.304688%,19.993591%);fill-opacity:1;" d="M 93.539063 23.609375 C 117.960938 12.539063 145.648438 9.03125 172.109375 13.210938 C 199.738281 17.511719 225.898438 30.53125 246.078125 49.878906 C 270.769531 73.28125 286.339844 106.03125 288.679688 139.980469 C 291.761719 178.691406 277.570313 218.398438 250.46875 246.230469 C 250.089844 238.160156 249.96875 230.082031 249.820313 222 C 249.761719 216.011719 248.429688 210.148438 247.921875 204.210938 C 248.03125 202.128906 248.269531 200.058594 248.339844 197.988281 C 248.628906 192.378906 245.660156 187.148438 246.421875 181.5 C 247.160156 173.558594 243 166.359375 240.941406 158.921875 C 238.890625 153.691406 239.019531 147.941406 237.03125 142.699219 C 235.601563 122.460938 227.761719 102.03125 212.398438 88.28125 C 212.898438 87.578125 213.878906 86.160156 214.378906 85.449219 C 214.988281 86.769531 215.679688 88.039063 216.371094 89.308594 C 219.941406 85.269531 220.488281 79.710938 221.550781 74.648438 C 223.539063 65.628906 222.160156 56.308594 220.621094 47.339844 C 219.429688 42.738281 218.480469 37.410156 214.628906 34.230469 C 210.519531 31.808594 203.398438 31.769531 201.011719 36.570313 C 200.929688 36.851563 200.769531 37.410156 200.691406 37.679688 C 198.898438 40.789063 196.421875 43.480469 193.308594 45.289063 C 187.789063 48.691406 184.78125 55.140625 178.878906 58.121094 C 175.199219 59.320313 171.460938 57.28125 167.710938 57.699219 C 160.648438 58.429688 153.480469 58.800781 146.621094 60.769531 C 140.128906 59.738281 133.609375 58.710938 127.160156 57.410156 C 127.179688 56.941406 127.230469 56.011719 127.261719 55.539063 C 124.308594 52.679688 121.621094 49.421875 120.550781 45.371094 C 118.578125 37.828125 113.929688 30.570313 106.921875 26.871094 C 105.929688 26.480469 104.941406 26.101563 103.949219 25.738281 C 103.328125 26.421875 102.730469 27.109375 102.140625 27.800781 C 101.910156 28.328125 101.449219 29.390625 101.21875 29.910156 C 99.660156 33.398438 100.011719 37.289063 99.898438 41.011719 C 99.800781 50.621094 98.800781 60.460938 94.738281 69.289063 C 88.199219 69.269531 81.667969 69.21875 75.140625 69.300781 C 73.839844 72.238281 74.300781 75.5 74.230469 78.609375 C 63.71875 88.339844 59.519531 102.679688 57.558594 116.429688 C 57.550781 117.488281 57.589844 118.558594 57.679688 119.621094 C 57.699219 120.039063 57.730469 120.878906 57.75 121.289063 C 53.128906 127.378906 52.320313 135.339844 51.128906 142.648438 C 52.820313 142.550781 54.511719 142.449219 56.210938 142.378906 C 54.648438 142.550781 53.089844 142.699219 51.539063 142.851563 C 51.238281 144.519531 51 146.191406 50.808594 147.871094 C 52.332031 147.308594 53.839844 146.730469 55.359375 146.171875 L 56.179688 146.210938 C 54.371094 146.949219 52.601563 147.808594 50.839844 148.679688 C 50.878906 149.738281 50.960938 151.871094 50.988281 152.929688 C 53.050781 151.871094 55.128906 150.871094 57.191406 149.808594 L 56.441406 150.648438 C 54.691406 151.789063 52.449219 152.398438 51.070313 154.019531 C 51.109375 157.859375 51.648438 161.679688 52.167969 165.480469 C 53.519531 174.121094 56.550781 182.53125 60.980469 190.070313 C 60.851563 195.578125 59.660156 201.128906 56.410156 205.679688 C 57.320313 207.398438 58.839844 208.988281 58.929688 211.011719 C 58.359375 214.441406 55.601563 217.339844 56.179688 220.980469 C 56.917969 229.808594 53.679688 238.238281 49.851563 246.011719 C 29.980469 225.359375 16.851563 198.339844 12.878906 169.949219 C 9.109375 143.449219 13.058594 115.839844 24.488281 91.601563 C 38.371094 61.640625 63.371094 37.03125 93.539063 23.609375 "/>
<path style=" stroke:none;fill-rule:nonzero;fill:rgb(78.125%,61.131287%,23.143005%);fill-opacity:1;" d="M 102.140625 27.800781 C 102.730469 27.109375 103.328125 26.421875 103.949219 25.738281 C 104.941406 26.101563 105.929688 26.480469 106.921875 26.871094 C 108.589844 32.121094 111.179688 37.371094 110.648438 43.03125 C 110.460938 46.808594 109.640625 50.871094 111.539063 54.390625 C 112.359375 56.390625 114.351563 57.429688 116.039063 58.578125 C 115.019531 59.371094 114.011719 60.160156 112.941406 60.871094 C 108.519531 62.628906 105 65.910156 101.691406 69.21875 C 100.410156 69.21875 99.128906 69.230469 97.851563 69.230469 C 104.851563 60.820313 107.941406 49.738281 107.910156 38.921875 C 108.050781 34.429688 104.609375 31.148438 102.140625 27.800781 "/>
<path style=" stroke:none;fill-rule:nonzero;fill:rgb(70.896912%,52.539063%,20.384216%);fill-opacity:1;" d="M 106.921875 26.871094 C 113.929688 30.570313 118.578125 37.828125 120.550781 45.371094 C 121.621094 49.421875 124.308594 52.679688 127.261719 55.539063 C 127.230469 56.011719 127.179688 56.941406 127.160156 57.410156 C 123.5 56.210938 119 55.449219 116.039063 58.578125 C 114.351563 57.429688 112.359375 56.390625 111.539063 54.390625 C 109.640625 50.871094 110.460938 46.808594 110.648438 43.03125 C 111.179688 37.371094 108.589844 32.121094 106.921875 26.871094 "/>
<path style=" stroke:none;fill-rule:nonzero;fill:rgb(87.5%,75.389099%,40.795898%);fill-opacity:1;" d="M 102.140625 27.800781 C 104.609375 31.148438 108.050781 34.429688 107.910156 38.921875 C 107.941406 49.738281 104.851563 60.820313 97.851563 69.230469 C 97.371094 69.238281 96.417969 69.261719 95.941406 69.261719 C 98.96875 64.621094 101.980469 59.589844 102.300781 53.898438 C 102.871094 45.871094 100.398438 37.960938 101.21875 29.910156 C 101.449219 29.390625 101.910156 28.328125 102.140625 27.800781 "/>
<path style=" stroke:none;fill-rule:nonzero;fill:rgb(65.429688%,56.054688%,19.993591%);fill-opacity:1;" d="M 99.898438 41.011719 C 100.011719 37.289063 99.660156 33.398438 101.21875 29.910156 C 100.398438 37.960938 102.871094 45.871094 102.300781 53.898438 C 101.980469 59.589844 98.96875 64.621094 95.941406 69.261719 L 94.738281 69.289063 C 98.800781 60.460938 99.800781 50.621094 99.898438 41.011719 "/>
<path style=" stroke:none;fill-rule:nonzero;fill:rgb(63.084412%,48.631287%,20.384216%);fill-opacity:1;" d="M 201.011719 36.570313 C 203.398438 31.769531 210.519531 31.808594 214.628906 34.230469 C 218.480469 37.410156 219.429688 42.738281 220.621094 47.339844 C 222.160156 56.308594 223.539063 65.628906 221.550781 74.648438 C 220.488281 79.710938 219.941406 85.269531 216.371094 89.308594 C 215.679688 88.039063 214.988281 86.769531 214.378906 85.449219 C 213.699219 83.46875 213.128906 81.449219 212.488281 79.449219 C 214.949219 73.960938 216.199219 67.960938 216.851563 62 C 217.441406 56.679688 213.898438 52.300781 210.371094 48.800781 C 208.5 43.859375 204.710938 40.179688 201.011719 36.570313 "/>
<path style=" stroke:none;fill-rule:nonzero;fill:rgb(72.068787%,59.568787%,26.660156%);fill-opacity:1;" d="M 200.691406 37.679688 C 200.769531 37.410156 200.929688 36.851563 201.011719 36.570313 C 204.710938 40.179688 208.5 43.859375 210.371094 48.800781 C 210.269531 50.25 209.941406 51.828125 208.421875 52.390625 C 204.089844 54.578125 199.238281 56.171875 196.070313 60.058594 C 193.898438 62.808594 189.671875 64.378906 189.328125 68.210938 C 189.789063 68.550781 190.710938 69.21875 191.171875 69.558594 C 190.738281 70.121094 189.890625 71.238281 189.460938 71.800781 C 190.011719 72.371094 190.570313 72.929688 191.128906 73.488281 C 193.441406 71.078125 196.988281 70.871094 199.980469 69.808594 C 199.511719 70.96875 199.039063 72.140625 198.570313 73.308594 C 199.839844 73.03125 201.128906 72.75 202.410156 72.488281 C 200.828125 74.300781 199.058594 75.941406 197.199219 77.46875 C 196.988281 77.351563 196.570313 77.128906 196.359375 77.019531 C 194.078125 75.890625 191.859375 74.371094 189.238281 74.269531 C 189.109375 73.878906 188.859375 73.121094 188.730469 72.730469 C 187.289063 72.648438 185.859375 72.378906 184.5 71.921875 C 184.878906 70.96875 185.640625 69.078125 186.019531 68.140625 C 185.230469 68.519531 183.640625 69.289063 182.851563 69.671875 C 185 66.140625 187.089844 62.570313 189.191406 59.011719 C 189.339844 58.75 189.640625 58.230469 189.789063 57.96875 C 192.679688 52.609375 196.929688 48.140625 199.839844 42.808594 C 200.859375 41.269531 200.820313 39.441406 200.691406 37.679688 "/>
<path style=" stroke:none;fill-rule:nonzero;fill:rgb(79.6875%,66.209412%,29.80957%);fill-opacity:1;" d="M 200.691406 37.679688 C 200.820313 39.441406 200.859375 41.269531 199.839844 42.808594 C 196.929688 48.140625 192.679688 52.609375 189.789063 57.96875 C 189.738281 53.46875 190.328125 48.871094 193.308594 45.289063 C 196.421875 43.480469 198.898438 40.789063 200.691406 37.679688 "/>
<path style=" stroke:none;fill-rule:nonzero;fill:rgb(67.381287%,50.584412%,19.604492%);fill-opacity:1;" d="M 178.878906 58.121094 C 184.78125 55.140625 187.789063 48.691406 193.308594 45.289063 C 190.328125 48.871094 189.738281 53.46875 189.789063 57.96875 C 189.640625 58.230469 189.339844 58.75 189.191406 59.011719 C 189.308594 57.28125 189.140625 55.558594 188.890625 53.851563 C 186.101563 59.609375 183.03125 65.269531 178.808594 70.128906 C 176.371094 69.46875 173.839844 69.230469 171.308594 69.230469 C 172.710938 66.550781 174.511719 64.109375 176.410156 61.78125 C 166.609375 59.480469 156.53125 61.710938 146.621094 60.769531 C 153.480469 58.800781 160.648438 58.429688 167.710938 57.699219 C 171.460938 57.28125 175.199219 59.320313 178.878906 58.121094 "/>
<path style=" stroke:none;fill-rule:nonzero;fill:rgb(57.226563%,44.700623%,21.972656%);fill-opacity:1;" d="M 210.371094 48.800781 C 213.898438 52.300781 217.441406 56.679688 216.851563 62 C 216.199219 67.960938 214.949219 73.960938 212.488281 79.449219 C 210.679688 80.929688 208.800781 82.328125 206.941406 83.761719 C 206.058594 83.109375 205.160156 82.46875 204.269531 81.828125 L 203.828125 81.53125 C 206.691406 75.378906 211.308594 69.601563 211.609375 62.609375 C 206.160156 62.808594 200.710938 63.699219 195.519531 65.359375 C 193.378906 65.890625 192.289063 67.859375 191.171875 69.558594 C 190.710938 69.21875 189.789063 68.550781 189.328125 68.210938 C 189.671875 64.378906 193.898438 62.808594 196.070313 60.058594 C 199.238281 56.171875 204.089844 54.578125 208.421875 52.390625 C 209.941406 51.828125 210.269531 50.25 210.371094 48.800781 "/>
<path style=" stroke:none;fill-rule:nonzero;fill:rgb(54.881287%,38.426208%,15.696716%);fill-opacity:1;" d="M 188.890625 53.851563 C 189.140625 55.558594 189.308594 57.28125 189.191406 59.011719 C 187.089844 62.570313 185 66.140625 182.851563 69.671875 C 183.640625 69.289063 185.230469 68.519531 186.019531 68.140625 C 185.640625 69.078125 184.878906 70.96875 184.5 71.921875 C 182.609375 71.28125 180.730469 70.640625 178.808594 70.128906 C 183.03125 65.269531 186.101563 59.609375 188.890625 53.851563 "/>
<path style=" stroke:none;fill-rule:nonzero;fill:rgb(82.421875%,65.818787%,24.31488%);fill-opacity:1;" d="M 116.039063 58.578125 C 119 55.449219 123.5 56.210938 127.160156 57.410156 C 133.609375 58.710938 140.128906 59.738281 146.621094 60.769531 C 156.53125 61.710938 166.609375 59.480469 176.410156 61.78125 C 174.511719 64.109375 172.710938 66.550781 171.308594 69.230469 C 155.28125 69.210938 139.238281 69.300781 123.210938 69.238281 C 122.539063 66.960938 122.449219 64.121094 120.351563 62.601563 C 118.210938 61.058594 115.441406 61.148438 112.941406 60.871094 C 114.011719 60.160156 115.019531 59.371094 116.039063 58.578125 "/>
<path style=" stroke:none;fill-rule:nonzero;fill:rgb(86.326599%,72.851563%,35.301208%);fill-opacity:1;" d="M 101.691406 69.21875 C 105 65.910156 108.519531 62.628906 112.941406 60.871094 C 115.441406 61.148438 118.210938 61.058594 120.351563 62.601563 C 122.449219 64.121094 122.539063 66.960938 123.210938 69.238281 C 116.039063 69.21875 108.859375 69.230469 101.691406 69.21875 "/>
<path style=" stroke:none;fill-rule:nonzero;fill:rgb(32.93457%,24.31488%,14.892578%);fill-opacity:1;" d="M 195.519531 65.359375 C 200.710938 63.699219 206.160156 62.808594 211.609375 62.609375 C 211.308594 69.601563 206.691406 75.378906 203.828125 81.53125 C 201.710938 80.03125 199.488281 78.691406 197.199219 77.46875 C 199.058594 75.941406 200.828125 74.300781 202.410156 72.488281 C 201.128906 72.75 199.839844 73.03125 198.570313 73.308594 C 199.039063 72.140625 199.511719 70.96875 199.980469 69.808594 C 196.988281 70.871094 193.441406 71.078125 191.128906 73.488281 C 190.570313 72.929688 190.011719 72.371094 189.460938 71.800781 C 189.890625 71.238281 190.738281 70.121094 191.171875 69.558594 C 192.289063 67.859375 193.378906 65.890625 195.519531 65.359375 "/>
<path style=" stroke:none;fill-rule:nonzero;fill:rgb(95.3125%,92.1875%,85.9375%);fill-opacity:1;" d="M 75.140625 69.300781 C 81.667969 69.21875 88.199219 69.269531 94.738281 69.289063 L 95.941406 69.261719 C 96.417969 69.261719 97.371094 69.238281 97.851563 69.230469 C 99.128906 69.230469 100.410156 69.21875 101.691406 69.21875 C 108.859375 69.230469 116.039063 69.21875 123.210938 69.238281 C 139.238281 69.300781 155.28125 69.210938 171.308594 69.230469 C 173.839844 69.230469 176.371094 69.46875 178.808594 70.128906 C 180.730469 70.640625 182.609375 71.28125 184.5 71.921875 C 185.859375 72.378906 187.289063 72.648438 188.730469 72.730469 C 188.859375 73.121094 189.109375 73.878906 189.238281 74.269531 C 191.859375 74.371094 194.078125 75.890625 196.359375 77.019531 C 194.878906 80.839844 191.871094 83.660156 189.078125 86.53125 C 191.53125 87.890625 193.960938 89.308594 196.191406 91.019531 C 199.039063 88.101563 201.671875 84.96875 204.269531 81.828125 C 205.160156 82.46875 206.058594 83.109375 206.941406 83.761719 C 208.828125 85.179688 210.660156 86.679688 212.398438 88.28125 C 227.761719 102.03125 235.601563 122.460938 237.03125 142.699219 C 237.21875 145.351563 237.261719 148.011719 237.339844 150.660156 C 237.28125 161.191406 236.328125 171.789063 233.570313 181.980469 C 231.660156 189.050781 228.949219 195.929688 225.238281 202.25 C 222.640625 206.261719 219.851563 210.179688 216.488281 213.601563 C 214.308594 215.878906 212.019531 218.070313 209.480469 219.960938 C 208.339844 219.371094 207.210938 218.789063 206.070313 218.210938 C 204.128906 219.289063 202.328125 221 199.988281 221.050781 C 196.851563 221.261719 193.941406 222.628906 190.851563 223.167969 C 193.851563 218.691406 199.980469 215.332031 198.988281 209.128906 C 197.300781 209.210938 195.621094 209.289063 193.941406 209.371094 C 194.511719 207.199219 195.058594 205.011719 195.578125 202.820313 C 195.019531 202.449219 193.921875 201.710938 193.371094 201.339844 C 195.261719 199.230469 197.191406 197.128906 198.96875 194.910156 C 195.171875 195.78125 191.738281 197.660156 188.140625 199.078125 C 195.039063 189.03125 201.109375 178.390625 206.191406 167.308594 C 209.089844 160.441406 212.960938 153.628906 213.050781 145.96875 C 213.308594 141.078125 210.179688 136.851563 210.03125 132 C 209.601563 126.421875 209.609375 119.960938 204.980469 115.988281 C 196.988281 117.628906 188.898438 116.101563 180.929688 115.171875 C 178.789063 114.859375 176.640625 115.230469 174.53125 115.578125 C 174.160156 115.128906 173.769531 114.710938 173.378906 114.289063 C 170.898438 111.800781 168.28125 109.199219 164.890625 108.03125 C 161.769531 107.519531 158.601563 107.929688 155.460938 107.960938 L 155.03125 107.851563 C 151.558594 106.339844 147.949219 104.371094 144.03125 105.070313 C 140.769531 105.410156 138.828125 108.371094 136.230469 110 C 133.550781 111.699219 130.890625 113.480469 128.859375 115.960938 C 131.539063 120.539063 136.351563 123.050781 141.328125 124.339844 C 141.160156 127.328125 140.929688 130.308594 140.671875 133.289063 C 137.609375 134.308594 134.75 135.828125 132.121094 137.691406 C 130.71875 134.660156 130.058594 131.351563 128.710938 128.308594 C 127.269531 126.390625 125.269531 124.980469 123.460938 123.429688 C 123.039063 124.71875 122.628906 126.019531 122.210938 127.320313 C 121.289063 127.800781 120.371094 128.289063 119.449219 128.78125 C 119.320313 126.519531 119.261719 124.25 118.851563 122.019531 C 117.949219 117.96875 115.058594 114.769531 113.53125 110.980469 C 113.78125 107.101563 114.960938 103.320313 115.058594 99.421875 C 113.121094 100.199219 111.148438 100.910156 109.25 101.769531 C 106.648438 102.800781 105.371094 105.539063 103.140625 107.070313 C 100.96875 108.03125 98.609375 108.390625 96.332031 108.988281 L 96.621094 108.160156 C 98.648438 106.378906 99.230469 103.761719 99.738281 101.238281 C 98.449219 101.859375 97.167969 102.480469 95.890625 103.109375 C 94.28125 100.851563 96.730469 99.328125 98.128906 97.851563 C 96.058594 95.929688 93.269531 94.441406 90.398438 95.480469 C 85.589844 97.160156 83.46875 102.5 82.980469 107.199219 C 81.011719 107.25 79.039063 107.339844 77.070313 107.300781 C 77.839844 105.878906 78.601563 104.460938 79.378906 103.039063 C 78.410156 100.890625 76.230469 100.078125 74.160156 99.371094 C 74.269531 94.011719 74.179688 88.660156 74.167969 83.308594 C 74.191406 81.738281 74.230469 80.179688 74.230469 78.609375 C 74.300781 75.5 73.839844 72.238281 75.140625 69.300781 "/>
<path style=" stroke:none;fill-rule:nonzero;fill:rgb(86.326599%,85.546875%,84.375%);fill-opacity:1;" d="M 196.359375 77.019531 C 196.570313 77.128906 196.988281 77.351563 197.199219 77.46875 C 199.488281 78.691406 201.710938 80.03125 203.828125 81.53125 L 204.269531 81.828125 C 201.671875 84.96875 199.039063 88.101563 196.191406 91.019531 C 193.960938 89.308594 191.53125 87.890625 189.078125 86.53125 C 191.871094 83.660156 194.878906 80.839844 196.359375 77.019531 "/>
<path style=" stroke:none;fill-rule:nonzero;fill:rgb(65.429688%,55.664063%,19.604492%);fill-opacity:1;" d="M 57.558594 116.429688 C 59.519531 102.679688 63.71875 88.339844 74.230469 78.609375 C 74.230469 80.179688 74.191406 81.738281 74.167969 83.308594 C 67.210938 90.601563 63.191406 100.320313 61.289063 110.109375 C 60.550781 113.441406 59.058594 116.53125 57.679688 119.621094 C 57.589844 118.558594 57.550781 117.488281 57.558594 116.429688 "/>
<path style=" stroke:none;fill-rule:nonzero;fill:rgb(70.896912%,58.396912%,26.660156%);fill-opacity:1;" d="M 206.941406 83.761719 C 208.800781 82.328125 210.679688 80.929688 212.488281 79.449219 C 213.128906 81.449219 213.699219 83.46875 214.378906 85.449219 C 213.878906 86.160156 212.898438 87.578125 212.398438 88.28125 C 210.660156 86.679688 208.828125 85.179688 206.941406 83.761719 "/>
<path style=" stroke:none;fill-rule:nonzero;fill:rgb(92.1875%,80.076599%,45.092773%);fill-opacity:1;" d="M 61.289063 110.109375 C 63.191406 100.320313 67.210938 90.601563 74.167969 83.308594 C 74.179688 88.660156 74.269531 94.011719 74.160156 99.371094 C 70.859375 102.179688 69.390625 106.800781 65.140625 108.488281 C 64.570313 111.410156 63.410156 114.171875 61.691406 116.601563 C 60.441406 118.21875 59.082031 119.738281 57.75 121.289063 C 57.730469 120.878906 57.699219 120.039063 57.679688 119.621094 C 59.058594 116.53125 60.550781 113.441406 61.289063 110.109375 "/>
<path style=" stroke:none;fill-rule:nonzero;fill:rgb(84.375%,84.375%,83.59375%);fill-opacity:1;" d="M 90.398438 95.480469 C 93.269531 94.441406 96.058594 95.929688 98.128906 97.851563 C 96.730469 99.328125 94.28125 100.851563 95.890625 103.109375 C 97.167969 102.480469 98.449219 101.859375 99.738281 101.238281 C 99.230469 103.761719 98.648438 106.378906 96.621094 108.160156 C 94 107.78125 91.339844 107.738281 88.710938 108.019531 C 88.871094 106.449219 88.980469 104.859375 89.371094 103.328125 C 90.570313 102.03125 92.300781 101.46875 93.820313 100.679688 C 92.898438 99.75 92.160156 98.550781 90.960938 97.96875 C 88.089844 98.738281 85.21875 100.921875 84.789063 104.019531 C 84.859375 105.441406 85.089844 106.851563 85.300781 108.269531 C 84.832031 108.25 83.878906 108.210938 83.410156 108.199219 L 82.820313 108.179688 L 82.980469 107.199219 C 83.46875 102.5 85.589844 97.160156 90.398438 95.480469 "/>
<path style=" stroke:none;fill-rule:nonzero;fill:rgb(90.234375%,87.109375%,84.375%);fill-opacity:1;" d="M 209.449219 97.421875 C 211.878906 96.578125 214.328125 95.789063 216.800781 95.089844 C 218.648438 98.800781 218.03125 102.828125 216.148438 106.378906 C 217.050781 106.378906 217.960938 106.390625 218.871094 106.398438 C 219.03125 109.519531 218.988281 113.890625 215.320313 114.910156 C 213.289063 110.441406 208.441406 107.839844 207.199219 102.929688 C 207.351563 100.910156 208.578125 99.191406 209.449219 97.421875 "/>
<path style=" stroke:none;fill-rule:nonzero;fill:rgb(96.09375%,94.921875%,90.234375%);fill-opacity:1;" d="M 84.789063 104.019531 C 85.21875 100.921875 88.089844 98.738281 90.960938 97.96875 C 92.160156 98.550781 92.898438 99.75 93.820313 100.679688 C 92.300781 101.46875 90.570313 102.03125 89.371094 103.328125 C 88.980469 104.859375 88.871094 106.449219 88.710938 108.019531 C 87.859375 108.078125 86.148438 108.199219 85.300781 108.269531 C 85.089844 106.851563 84.859375 105.441406 84.789063 104.019531 "/>
<path style=" stroke:none;fill-rule:nonzero;fill:rgb(97.264099%,95.3125%,89.451599%);fill-opacity:1;" d="M 109.25 101.769531 C 111.148438 100.910156 113.121094 100.199219 115.058594 99.421875 C 114.960938 103.320313 113.78125 107.101563 113.53125 110.980469 C 115.058594 114.769531 117.949219 117.96875 118.851563 122.019531 C 119.261719 124.25 119.320313 126.519531 119.449219 128.78125 C 120.371094 128.289063 121.289063 127.800781 122.210938 127.320313 C 122.628906 126.019531 123.039063 124.71875 123.460938 123.429688 C 125.269531 124.980469 127.269531 126.390625 128.710938 128.308594 C 130.058594 131.351563 130.71875 134.660156 132.121094 137.691406 C 134.75 135.828125 137.609375 134.308594 140.671875 133.289063 C 140.929688 130.308594 141.160156 127.328125 141.328125 124.339844 C 141.339844 124.019531 141.351563 123.378906 141.359375 123.058594 C 139.589844 121.578125 136.808594 120.628906 136.570313 117.988281 C 136.351563 114.628906 138.46875 111.710938 140.839844 109.558594 C 141.5 109.699219 142.171875 109.859375 142.851563 109.960938 C 144.140625 109.859375 144.769531 109.101563 144.730469 107.660156 C 146.460938 107.589844 148.191406 107.671875 149.921875 107.769531 C 148.171875 110.191406 145.941406 112.441406 142.871094 112.949219 C 142.859375 114.570313 142.898438 116.191406 142.988281 117.808594 C 142.890625 119.441406 142.71875 121.070313 142.621094 122.699219 L 142.589844 123.820313 C 142.609375 127.671875 142.609375 131.53125 142.640625 135.378906 C 142.660156 154.628906 142.570313 173.871094 142.679688 193.121094 C 142.769531 193.488281 142.960938 194.238281 143.058594 194.609375 C 151.730469 194.03125 161.601563 196.75 169.121094 191.101563 C 179.660156 183.53125 183.988281 170.289063 185.078125 157.859375 C 186.308594 143.191406 183.691406 127.488281 174.53125 115.578125 C 176.640625 115.230469 178.789063 114.859375 180.929688 115.171875 C 188.898438 116.101563 196.988281 117.628906 204.980469 115.988281 C 209.609375 119.960938 209.601563 126.421875 210.03125 132 C 210.179688 136.851563 213.308594 141.078125 213.050781 145.96875 C 212.960938 153.628906 209.089844 160.441406 206.191406 167.308594 C 201.109375 178.390625 195.039063 189.03125 188.140625 199.078125 C 191.738281 197.660156 195.171875 195.78125 198.96875 194.910156 C 197.191406 197.128906 195.261719 199.230469 193.371094 201.339844 C 193.921875 201.710938 195.019531 202.449219 195.578125 202.820313 C 195.058594 205.011719 194.511719 207.199219 193.941406 209.371094 C 195.621094 209.289063 197.300781 209.210938 198.988281 209.128906 C 199.980469 215.332031 193.851563 218.691406 190.851563 223.167969 C 193.941406 222.628906 196.851563 221.261719 199.988281 221.050781 C 202.328125 221 204.128906 219.289063 206.070313 218.210938 C 207.210938 218.789063 208.339844 219.371094 209.480469 219.960938 C 197.398438 229.140625 182.171875 234.089844 167 233.75 C 153.800781 233.710938 140.601563 233.808594 127.398438 233.699219 C 121.679688 233.71875 115.949219 233.710938 110.230469 233.71875 C 106.03125 233.71875 101.820313 233.71875 97.621094 233.738281 C 96.390625 233.730469 95.160156 233.71875 93.929688 233.71875 C 88.320313 233.699219 82.699219 233.917969 77.101563 233.679688 C 75.128906 233.839844 74.339844 231.648438 74.332031 230.050781 C 74.082031 225.601563 74.308594 221.148438 74.238281 216.699219 C 74.289063 211.621094 74.320313 206.53125 74.191406 201.449219 C 74.167969 199.230469 74.519531 197.050781 75.039063 194.898438 C 82.101563 194.179688 89.191406 195.101563 96.269531 194.609375 C 96.269531 192.191406 96.28125 189.769531 96.28125 187.359375 C 96.28125 185.5 96.28125 183.640625 96.300781 181.789063 C 96.730469 183.410156 97.261719 185 97.78125 186.601563 C 101.121094 185.980469 104.828125 185.128906 107.351563 188.089844 C 113.238281 182.871094 121.921875 183.121094 128.960938 180.230469 C 130.488281 176.25 134.058594 173.039063 133.589844 168.449219 C 133.308594 168.390625 132.730469 168.261719 132.449219 168.191406 C 125.078125 165.871094 118.191406 170.640625 110.988281 171.191406 C 106.199219 170.738281 101.578125 168.421875 98.5 164.710938 C 98.761719 163.648438 99.050781 162.589844 99.332031 161.539063 C 98.621094 160.949219 97.910156 160.359375 97.199219 159.769531 C 97.121094 157.628906 97.089844 155.488281 97.210938 153.359375 C 97.859375 150.839844 99.539063 148.871094 101.851563 147.710938 C 102.589844 143.929688 103.199219 140.128906 103.859375 136.339844 C 101.890625 133.851563 99.230469 132.109375 96.269531 131.019531 L 96.269531 130.730469 C 96.25 128.191406 96.25 125.660156 96.269531 123.121094 C 96.320313 118.738281 96.269531 114.359375 96.25 109.980469 C 96.269531 109.730469 96.308594 109.230469 96.332031 108.988281 C 98.609375 108.390625 100.96875 108.03125 103.140625 107.070313 C 105.371094 105.539063 106.648438 102.800781 109.25 101.769531 "/>
<path style=" stroke:none;fill-rule:nonzero;fill:rgb(95.701599%,93.75%,78.514099%);fill-opacity:1;" d="M 65.140625 108.488281 C 69.390625 106.800781 70.859375 102.179688 74.160156 99.371094 C 74.199219 101.890625 74.25 104.410156 74.320313 106.929688 C 75.011719 107.019531 76.378906 107.210938 77.070313 107.300781 C 79.039063 107.339844 81.011719 107.25 82.980469 107.199219 L 82.820313 108.179688 C 80.128906 108.128906 77.441406 108.121094 74.75 108.070313 C 74.417969 109.578125 74.191406 111.101563 74.109375 112.640625 C 68.859375 114.679688 65.710938 119.5 61.417969 122.851563 C 61.460938 120.761719 61.511719 118.679688 61.691406 116.601563 C 63.410156 114.171875 64.570313 111.410156 65.140625 108.488281 "/>
<path style=" stroke:none;fill-rule:nonzero;fill:rgb(98.826599%,98.826599%,95.701599%);fill-opacity:1;" d="M 74.160156 99.371094 C 76.230469 100.078125 78.410156 100.890625 79.378906 103.039063 C 78.601563 104.460938 77.839844 105.878906 77.070313 107.300781 C 76.378906 107.210938 75.011719 107.019531 74.320313 106.929688 C 74.25 104.410156 74.199219 101.890625 74.160156 99.371094 "/>
<path style=" stroke:none;fill-rule:nonzero;fill:rgb(84.375%,84.375%,83.59375%);fill-opacity:1;" d="M 136.230469 110 C 138.828125 108.371094 140.769531 105.410156 144.03125 105.070313 C 147.949219 104.371094 151.558594 106.339844 155.03125 107.851563 C 153.320313 107.808594 151.621094 107.839844 149.921875 107.769531 C 148.191406 107.671875 146.460938 107.589844 144.730469 107.660156 C 143.320313 107.738281 142.691406 108.511719 142.851563 109.960938 C 142.171875 109.859375 141.5 109.699219 140.839844 109.558594 C 138.46875 111.710938 136.351563 114.628906 136.570313 117.988281 C 136.808594 120.628906 139.589844 121.578125 141.359375 123.058594 C 141.351563 123.378906 141.339844 124.019531 141.328125 124.339844 C 136.351563 123.050781 131.539063 120.539063 128.859375 115.960938 C 130.890625 113.480469 133.550781 111.699219 136.230469 110 "/>
<path style=" stroke:none;fill-rule:nonzero;fill:rgb(89.84375%,77.734375%,41.967773%);fill-opacity:1;" d="M 74.75 108.070313 C 77.441406 108.121094 80.128906 108.128906 82.820313 108.179688 L 83.410156 108.199219 C 84.480469 110.328125 85.960938 112.230469 88.070313 113.421875 C 88.71875 113.929688 89.359375 114.460938 89.988281 115 C 87.890625 118.21875 84.808594 120.769531 83.300781 124.371094 C 81.800781 124.980469 80.320313 125.628906 78.808594 126.179688 C 78.488281 125.96875 77.851563 125.558594 77.53125 125.351563 C 77.839844 124.820313 78.441406 123.769531 78.738281 123.238281 C 77.601563 122.96875 76.449219 122.699219 75.308594 122.429688 C 74.710938 119.191406 74.28125 115.929688 74.109375 112.640625 C 74.191406 111.101563 74.417969 109.578125 74.75 108.070313 "/>
<path style=" stroke:none;fill-rule:nonzero;fill:rgb(14.109802%,12.939453%,6.272888%);fill-opacity:1;" d="M 83.410156 108.199219 C 83.878906 108.210938 84.832031 108.25 85.300781 108.269531 C 85.058594 112.308594 89.679688 111.839844 92.378906 111.421875 C 91.167969 110.261719 89.960938 109.121094 88.710938 108.019531 C 91.339844 107.738281 94 107.78125 96.621094 108.160156 L 96.332031 108.988281 C 96.308594 109.230469 96.269531 109.730469 96.25 109.980469 C 93.261719 110.589844 91.261719 113.730469 88.070313 113.421875 C 85.960938 112.230469 84.480469 110.328125 83.410156 108.199219 "/>
<path style=" stroke:none;fill-rule:nonzero;fill:rgb(57.617188%,51.367188%,34.104919%);fill-opacity:1;" d="M 85.300781 108.269531 C 86.148438 108.199219 87.859375 108.078125 88.710938 108.019531 C 89.960938 109.121094 91.167969 110.261719 92.378906 111.421875 C 89.679688 111.839844 85.058594 112.308594 85.300781 108.269531 "/>
<path style=" stroke:none;fill-rule:nonzero;fill:rgb(80.46875%,74.021912%,51.367188%);fill-opacity:1;" d="M 142.851563 109.960938 C 142.691406 108.511719 143.320313 107.738281 144.730469 107.660156 C 144.769531 109.101563 144.140625 109.859375 142.851563 109.960938 "/>
<path style=" stroke:none;fill-rule:nonzero;fill:rgb(14.501953%,13.330078%,6.665039%);fill-opacity:1;" d="M 149.921875 107.769531 C 151.621094 107.839844 153.320313 107.808594 155.03125 107.851563 L 155.460938 107.960938 C 157.691406 109.390625 159.890625 110.929688 161.71875 112.878906 C 159.609375 117.398438 155.859375 121.210938 151.21875 123.121094 C 148.429688 123.960938 145.460938 123.679688 142.589844 123.820313 L 142.621094 122.699219 C 144.78125 122.679688 146.941406 122.601563 149.109375 122.480469 C 146.730469 121.398438 144.441406 120.050781 142.988281 117.808594 C 142.898438 116.191406 142.859375 114.570313 142.871094 112.949219 C 145.941406 112.441406 148.171875 110.191406 149.921875 107.769531 "/>
<path style=" stroke:none;fill-rule:nonzero;fill:rgb(82.421875%,69.726563%,34.104919%);fill-opacity:1;" d="M 155.460938 107.960938 C 158.601563 107.929688 161.769531 107.519531 164.890625 108.03125 C 168.28125 109.199219 170.898438 111.800781 173.378906 114.289063 C 170.179688 117.601563 168.089844 121.71875 165.351563 125.371094 C 162.640625 129.101563 157.761719 129.738281 153.941406 131.839844 C 150.429688 133.738281 146.640625 135.070313 142.640625 135.378906 C 142.609375 131.53125 142.609375 127.671875 142.589844 123.820313 C 145.460938 123.679688 148.429688 123.960938 151.21875 123.121094 C 155.859375 121.210938 159.609375 117.398438 161.71875 112.878906 C 159.890625 110.929688 157.691406 109.390625 155.460938 107.960938 "/>
<path style=" stroke:none;fill-rule:nonzero;fill:rgb(90.234375%,74.021912%,38.426208%);fill-opacity:1;" d="M 88.070313 113.421875 C 91.261719 113.730469 93.261719 110.589844 96.25 109.980469 C 96.269531 114.359375 96.320313 118.738281 96.269531 123.121094 C 93.871094 123.710938 91.359375 124.988281 88.890625 124.058594 C 87.03125 123.320313 85.089844 123.53125 83.300781 124.371094 C 84.808594 120.769531 87.890625 118.21875 89.988281 115 C 89.359375 114.460938 88.71875 113.929688 88.070313 113.421875 "/>
<path style=" stroke:none;fill-rule:nonzero;fill:rgb(41.184998%,38.035583%,28.24707%);fill-opacity:1;" d="M 150.308594 110.308594 C 153.550781 110.578125 148.628906 113.320313 150.308594 110.308594 "/>
<path style=" stroke:none;fill-rule:nonzero;fill:rgb(95.701599%,92.576599%,70.506287%);fill-opacity:1;" d="M 61.417969 122.851563 C 65.710938 119.5 68.859375 114.679688 74.109375 112.640625 C 74.28125 115.929688 74.710938 119.191406 75.308594 122.429688 C 76.449219 122.699219 77.601563 122.96875 78.738281 123.238281 C 78.441406 123.769531 77.839844 124.820313 77.53125 125.351563 C 74.140625 127.921875 69.738281 129.828125 68.070313 134.039063 C 66.167969 139.199219 66.359375 144.800781 65.648438 150.191406 C 64.417969 148.96875 62.582031 147.960938 62.691406 145.96875 C 62.429688 141.921875 63.5 137.941406 63.738281 133.921875 C 61.871094 136.640625 60.738281 139.761719 59.621094 142.839844 C 59.109375 144.78125 56.839844 145.199219 55.359375 146.171875 C 53.839844 146.730469 52.332031 147.308594 50.808594 147.871094 C 51 146.191406 51.238281 144.519531 51.539063 142.851563 C 53.089844 142.699219 54.648438 142.550781 56.210938 142.378906 C 54.511719 142.449219 52.820313 142.550781 51.128906 142.648438 C 52.320313 135.339844 53.128906 127.378906 57.75 121.289063 C 59.082031 119.738281 60.441406 118.21875 61.691406 116.601563 C 61.511719 118.679688 61.460938 120.761719 61.417969 122.851563 "/>
<path style=" stroke:none;fill-rule:nonzero;fill:rgb(44.309998%,41.184998%,30.979919%);fill-opacity:1;" d="M 151.289063 114.070313 C 154.320313 112.640625 151.601563 117.328125 151.289063 114.070313 "/>
<path style=" stroke:none;fill-rule:nonzero;fill:rgb(87.5%,80.46875%,53.318787%);fill-opacity:1;" d="M 173.378906 114.289063 C 173.769531 114.710938 174.160156 115.128906 174.53125 115.578125 C 183.691406 127.488281 186.308594 143.191406 185.078125 157.859375 C 183.511719 158.710938 181.910156 159.519531 180.429688 160.53125 C 177.890625 162.269531 176.5 165.230469 173.960938 166.96875 C 169.511719 169.191406 163.910156 168.660156 159.949219 171.929688 C 157.691406 174.488281 156.148438 177.640625 153.511719 179.871094 C 154.921875 181.300781 156.441406 182.628906 157.738281 184.171875 C 158.421875 185.359375 158.171875 186.890625 158.851563 188.089844 C 160.121094 189.109375 161.570313 189.890625 162.960938 190.75 C 159.359375 191.289063 155.710938 191.160156 152.101563 190.679688 C 148.730469 190.039063 145.691406 191.949219 142.679688 193.121094 C 142.570313 173.871094 142.660156 154.628906 142.640625 135.378906 C 146.640625 135.070313 150.429688 133.738281 153.941406 131.839844 C 157.761719 129.738281 162.640625 129.101563 165.351563 125.371094 C 168.089844 121.71875 170.179688 117.601563 173.378906 114.289063 "/>
<path style=" stroke:none;fill-rule:nonzero;fill:rgb(87.5%,80.46875%,53.318787%);fill-opacity:1;" d="M 142.988281 117.808594 C 144.441406 120.050781 146.730469 121.398438 149.109375 122.480469 C 146.941406 122.601563 144.78125 122.679688 142.621094 122.699219 C 142.71875 121.070313 142.890625 119.441406 142.988281 117.808594 "/>
<path style=" stroke:none;fill-rule:nonzero;fill:rgb(87.5%,77.34375%,48.631287%);fill-opacity:1;" d="M 83.300781 124.371094 C 85.089844 123.53125 87.03125 123.320313 88.890625 124.058594 C 91.359375 124.988281 93.871094 123.710938 96.269531 123.121094 C 96.25 125.660156 96.25 128.191406 96.269531 130.730469 C 91.5 129.050781 86.53125 127.730469 81.417969 128.011719 C 80.550781 127.390625 79.679688 126.78125 78.808594 126.179688 C 80.320313 125.628906 81.800781 124.980469 83.300781 124.371094 "/>
<path style=" stroke:none;fill-rule:nonzero;fill:rgb(95.3125%,88.28125%,61.521912%);fill-opacity:1;" d="M 68.070313 134.039063 C 69.738281 129.828125 74.140625 127.921875 77.53125 125.351563 C 77.851563 125.558594 78.488281 125.96875 78.808594 126.179688 C 79.679688 126.78125 80.550781 127.390625 81.417969 128.011719 C 76.859375 128.160156 72.359375 131.101563 71.820313 135.898438 C 71.03125 142 68.917969 147.851563 68.351563 153.96875 C 67.75 158.371094 71.808594 161.25 73.082031 165.089844 C 73.46875 167.179688 73.601563 169.308594 74.128906 171.371094 C 73.519531 174.039063 72.988281 176.730469 72.570313 179.429688 C 71.679688 179.449219 70.78125 179.480469 69.890625 179.511719 C 68.949219 181.691406 67.820313 183.808594 67.109375 186.089844 C 67.917969 190.480469 69.359375 194.75 70.371094 199.109375 C 70.167969 199.601563 69.761719 200.589844 69.558594 201.082031 C 67.378906 198.710938 66.140625 195.398438 63.261719 193.761719 C 62.519531 192.511719 61.71875 191.308594 60.980469 190.070313 C 56.550781 182.53125 53.519531 174.121094 52.167969 165.480469 C 52.582031 162.929688 53.070313 160.390625 53.488281 157.851563 C 55.332031 161.5 55.128906 165.949219 57.589844 169.28125 C 59.261719 168.839844 60.941406 168.429688 62.640625 168.128906 L 63.480469 169.128906 C 65.238281 166.578125 66.898438 163.839844 67.21875 160.679688 C 66.070313 162.238281 65 163.859375 64.03125 165.539063 C 62.628906 163.339844 60.96875 161.238281 60.160156 158.738281 C 59.710938 155.851563 59.808594 152.921875 59.582031 150.019531 C 58.53125 150.21875 57.488281 150.421875 56.441406 150.648438 L 57.191406 149.808594 C 58.121094 148.769531 59.011719 147.699219 59.910156 146.640625 C 58.667969 146.480469 57.429688 146.28125 56.179688 146.210938 L 55.359375 146.171875 C 56.839844 145.199219 59.109375 144.78125 59.621094 142.839844 C 60.738281 139.761719 61.871094 136.640625 63.738281 133.921875 C 63.5 137.941406 62.429688 141.921875 62.691406 145.96875 C 62.582031 147.960938 64.417969 148.96875 65.648438 150.191406 C 66.359375 144.800781 66.167969 139.199219 68.070313 134.039063 "/>
<path style=" stroke:none;fill-rule:nonzero;fill:rgb(14.501953%,13.330078%,6.665039%);fill-opacity:1;" d="M 71.820313 135.898438 C 72.359375 131.101563 76.859375 128.160156 81.417969 128.011719 C 86.53125 127.730469 91.5 129.050781 96.269531 130.730469 L 96.269531 131.019531 C 96.300781 135.488281 96.238281 139.949219 96.289063 144.421875 L 96.28125 145.25 C 94.78125 146.710938 93.359375 148.261719 91.917969 149.789063 C 89.480469 151.871094 86.351563 152.699219 83.308594 153.480469 C 83.167969 154.128906 82.890625 155.429688 82.75 156.078125 C 82.589844 156.800781 82.28125 158.25 82.121094 158.96875 C 77.832031 154.988281 75.320313 149.648438 72.46875 144.648438 C 70.878906 141.988281 71.488281 138.789063 71.820313 135.898438 "/>
<path style=" stroke:none;fill-rule:nonzero;fill:rgb(87.5%,86.71875%,85.15625%);fill-opacity:1;" d="M 96.269531 131.019531 C 99.230469 132.109375 101.890625 133.851563 103.859375 136.339844 C 103.199219 140.128906 102.589844 143.929688 101.851563 147.710938 C 99.539063 148.871094 97.859375 150.839844 97.210938 153.359375 C 97.371094 150.339844 96.878906 147.359375 96.289063 144.421875 C 96.238281 139.949219 96.300781 135.488281 96.269531 131.019531 "/>
<path style=" stroke:none;fill-rule:nonzero;fill:rgb(83.984375%,83.984375%,83.59375%);fill-opacity:1;" d="M 28.25 132.300781 C 31.441406 131.890625 34.667969 132.238281 37.871094 132.050781 L 36.460938 133.839844 C 41.417969 133.46875 46.46875 133.828125 51.261719 135.21875 C 46.871094 134.339844 42.410156 133.660156 37.929688 134 C 36.269531 134.191406 34.789063 133.421875 33.429688 132.578125 C 31.820313 132.449219 29.269531 134.199219 28.25 132.300781 "/>
<path style=" stroke:none;fill-rule:nonzero;fill:rgb(43.138123%,38.818359%,25.87738%);fill-opacity:1;" d="M 68.351563 153.96875 C 68.917969 147.851563 71.03125 142 71.820313 135.898438 C 71.488281 138.789063 70.878906 141.988281 72.46875 144.648438 C 75.320313 149.648438 77.832031 154.988281 82.121094 158.96875 C 82.28125 158.25 82.589844 156.800781 82.75 156.078125 C 84.320313 156.148438 85.890625 156.238281 87.46875 156.339844 C 89.667969 158.121094 92.039063 159.71875 93.941406 161.851563 C 95.988281 157.949219 93.101563 154.128906 93.488281 150.121094 C 93.101563 150.039063 92.308594 149.871094 91.917969 149.789063 C 93.359375 148.261719 94.78125 146.710938 96.28125 145.25 C 96.261719 152.058594 96.289063 158.878906 96.289063 165.691406 C 88.589844 163.289063 80.371094 160.5 72.320313 163.078125 C 79.851563 166.519531 88.339844 166.789063 96.28125 168.871094 C 96.28125 171.121094 96.261719 173.371094 96.238281 175.621094 C 92.570313 177.269531 89.230469 179.550781 85.660156 181.398438 C 81.941406 178.898438 79.230469 175.230469 75.539063 172.691406 C 75.191406 172.359375 74.480469 171.699219 74.128906 171.371094 C 73.601563 169.308594 73.46875 167.179688 73.082031 165.089844 C 71.808594 161.25 67.75 158.371094 68.351563 153.96875 "/>
<path style=" stroke:none;fill-rule:nonzero;fill:rgb(74.804688%,65.039063%,29.80957%);fill-opacity:1;" d="M 37.761719 146.960938 C 41.589844 144.839844 45.929688 143.890625 50.179688 143.050781 C 49.730469 144.011719 48.980469 144.589844 47.949219 144.808594 C 44.628906 145.808594 41.28125 146.96875 37.761719 146.960938 "/>
<path style=" stroke:none;fill-rule:nonzero;fill:rgb(59.568787%,51.756287%,18.821716%);fill-opacity:1;" d="M 237.03125 142.699219 C 239.019531 147.941406 238.890625 153.691406 240.941406 158.921875 C 243 166.359375 247.160156 173.558594 246.421875 181.5 C 245.398438 179.839844 244.449219 178.070313 244.53125 176.058594 C 244.550781 171.769531 242.261719 168.03125 241.210938 163.980469 C 239.96875 159.519531 238.679688 155.078125 237.339844 150.660156 C 237.261719 148.011719 237.21875 145.351563 237.03125 142.699219 "/>
<path style=" stroke:none;fill-rule:nonzero;fill:rgb(90.625%,89.0625%,85.9375%);fill-opacity:1;" d="M 96.289063 144.421875 C 96.878906 147.359375 97.371094 150.339844 97.210938 153.359375 C 97.089844 155.488281 97.121094 157.628906 97.199219 159.769531 C 97.910156 160.359375 98.621094 160.949219 99.332031 161.539063 C 99.050781 162.589844 98.761719 163.648438 98.5 164.710938 C 98.109375 166.261719 98.050781 167.871094 98.070313 169.46875 C 108.96875 173.308594 122.621094 175.988281 132.449219 168.191406 C 132.730469 168.261719 133.308594 168.390625 133.589844 168.449219 C 134.058594 173.039063 130.488281 176.25 128.960938 180.230469 C 121.921875 183.121094 113.238281 182.871094 107.351563 188.089844 C 104.828125 185.128906 101.121094 185.980469 97.78125 186.601563 C 97.261719 185 96.730469 183.410156 96.300781 181.789063 C 96.210938 179.730469 96.230469 177.679688 96.238281 175.621094 C 96.261719 173.371094 96.28125 171.121094 96.28125 168.871094 C 96.289063 167.808594 96.289063 166.75 96.289063 165.691406 C 96.289063 158.878906 96.261719 152.058594 96.28125 145.25 L 96.289063 144.421875 "/>
<path style=" stroke:none;fill-rule:nonzero;fill:rgb(96.09375%,92.96875%,71.289063%);fill-opacity:1;" d="M 56.179688 146.210938 C 57.429688 146.28125 58.667969 146.480469 59.910156 146.640625 C 59.011719 147.699219 58.121094 148.769531 57.191406 149.808594 C 55.128906 150.871094 53.050781 151.871094 50.988281 152.929688 C 50.960938 151.871094 50.878906 149.738281 50.839844 148.679688 C 52.601563 147.808594 54.371094 146.949219 56.179688 146.210938 "/>
<path style=" stroke:none;fill-rule:nonzero;fill:rgb(95.701599%,92.576599%,70.506287%);fill-opacity:1;" d="M 56.441406 150.648438 C 57.488281 150.421875 58.53125 150.21875 59.582031 150.019531 C 59.808594 152.921875 59.710938 155.851563 60.160156 158.738281 C 60.96875 161.238281 62.628906 163.339844 64.03125 165.539063 C 63.539063 166.390625 63.082031 167.25 62.640625 168.128906 C 60.941406 168.429688 59.261719 168.839844 57.589844 169.28125 C 55.128906 165.949219 55.332031 161.5 53.488281 157.851563 C 53.070313 160.390625 52.582031 162.929688 52.167969 165.480469 C 51.648438 161.679688 51.109375 157.859375 51.070313 154.019531 C 52.449219 152.398438 54.691406 151.789063 56.441406 150.648438 "/>
<path style=" stroke:none;fill-rule:nonzero;fill:rgb(22.363281%,19.993591%,12.156677%);fill-opacity:1;" d="M 83.308594 153.480469 C 86.351563 152.699219 89.480469 151.871094 91.917969 149.789063 C 92.308594 149.871094 93.101563 150.039063 93.488281 150.121094 C 93.101563 154.128906 95.988281 157.949219 93.941406 161.851563 C 92.039063 159.71875 89.667969 158.121094 87.46875 156.339844 C 85.890625 156.238281 84.320313 156.148438 82.75 156.078125 C 82.890625 155.429688 83.167969 154.128906 83.308594 153.480469 "/>
<path style=" stroke:none;fill-rule:nonzero;fill:rgb(80.076599%,65.818787%,27.830505%);fill-opacity:1;" d="M 237.339844 150.660156 C 238.679688 155.078125 239.96875 159.519531 241.210938 163.980469 C 242.261719 168.03125 244.550781 171.769531 244.53125 176.058594 C 244.449219 178.070313 245.398438 179.839844 246.421875 181.5 C 245.660156 187.148438 248.628906 192.378906 248.339844 197.988281 C 248.269531 200.058594 248.03125 202.128906 247.921875 204.210938 C 247.171875 202.929688 246.28125 201.738281 245.328125 200.609375 C 244.238281 203.980469 244.960938 208.140625 242.210938 210.769531 C 241.011719 209.070313 240.410156 206.25 237.960938 206 C 234.410156 205.429688 231.101563 207.167969 228.71875 209.679688 C 225.589844 213.03125 220.75 213.179688 216.488281 213.601563 C 219.851563 210.179688 222.640625 206.261719 225.238281 202.25 C 227.558594 202.980469 229.121094 200.910156 230.851563 199.789063 C 232.558594 198.339844 234.800781 197.851563 236.710938 196.738281 C 238.328125 194.179688 239.53125 191.320313 240.210938 188.371094 C 239.660156 186.429688 238.75 184.621094 238.308594 182.648438 C 237.308594 182.890625 236.328125 183.128906 235.339844 183.371094 C 234.898438 183.019531 234.011719 182.328125 233.570313 181.980469 C 236.328125 171.789063 237.28125 161.191406 237.339844 150.660156 "/>
<path style=" stroke:none;fill-rule:nonzero;fill:rgb(75.78125%,66.209412%,33.714294%);fill-opacity:1;" d="M 46.582031 155.039063 C 48.082031 154.351563 48.101563 156.320313 46.878906 156.628906 C 45.820313 157.171875 44.550781 158.28125 43.300781 157.75 C 43.25 156.199219 45.429688 155.609375 46.582031 155.039063 "/>
<path style=" stroke:none;fill-rule:nonzero;fill:rgb(92.576599%,83.59375%,57.226563%);fill-opacity:1;" d="M 180.429688 160.53125 C 181.910156 159.519531 183.511719 158.710938 185.078125 157.859375 C 183.988281 170.289063 179.660156 183.53125 169.121094 191.101563 C 161.601563 196.75 151.730469 194.03125 143.058594 194.609375 C 142.960938 194.238281 142.769531 193.488281 142.679688 193.121094 C 145.691406 191.949219 148.730469 190.039063 152.101563 190.679688 C 155.710938 191.160156 159.359375 191.289063 162.960938 190.75 C 161.570313 189.890625 160.121094 189.109375 158.851563 188.089844 C 158.171875 186.890625 158.421875 185.359375 157.738281 184.171875 C 156.441406 182.628906 154.921875 181.300781 153.511719 179.871094 C 156.148438 177.640625 157.691406 174.488281 159.949219 171.929688 C 163.910156 168.660156 169.511719 169.191406 173.960938 166.96875 C 176.5 165.230469 177.890625 162.269531 180.429688 160.53125 "/>
<path style=" stroke:none;fill-rule:nonzero;fill:rgb(84.375%,76.171875%,48.631287%);fill-opacity:1;" d="M 64.03125 165.539063 C 65 163.859375 66.070313 162.238281 67.21875 160.679688 C 66.898438 163.839844 65.238281 166.578125 63.480469 169.128906 L 62.640625 168.128906 C 63.082031 167.25 63.539063 166.390625 64.03125 165.539063 "/>
<path style=" stroke:none;fill-rule:nonzero;fill:rgb(14.109802%,12.939453%,6.272888%);fill-opacity:1;" d="M 72.320313 163.078125 C 80.371094 160.5 88.589844 163.289063 96.289063 165.691406 C 96.289063 166.75 96.289063 167.808594 96.28125 168.871094 C 88.339844 166.789063 79.851563 166.519531 72.320313 163.078125 "/>
<path style=" stroke:none;fill-rule:nonzero;fill:rgb(83.984375%,83.984375%,83.59375%);fill-opacity:1;" d="M 98.070313 169.46875 C 98.050781 167.871094 98.109375 166.261719 98.5 164.710938 C 101.578125 168.421875 106.199219 170.738281 110.988281 171.191406 C 118.191406 170.640625 125.078125 165.871094 132.449219 168.191406 C 122.621094 175.988281 108.96875 173.308594 98.070313 169.46875 "/>
<path style=" stroke:none;fill-rule:nonzero;fill:rgb(93.359375%,84.764099%,54.492188%);fill-opacity:1;" d="M 74.128906 171.371094 C 74.480469 171.699219 75.191406 172.359375 75.539063 172.691406 C 75.898438 177.558594 78.839844 181.640625 81.121094 185.800781 C 82.96875 189.238281 86.101563 191.738281 89.300781 193.871094 C 91.558594 194.5 93.941406 194.421875 96.269531 194.609375 C 89.191406 195.101563 82.101563 194.179688 75.039063 194.898438 C 74.519531 197.050781 74.167969 199.230469 74.191406 201.449219 C 72.917969 200.667969 71.648438 199.890625 70.371094 199.109375 C 69.359375 194.75 67.917969 190.480469 67.109375 186.089844 C 67.820313 183.808594 68.949219 181.691406 69.890625 179.511719 C 70.78125 179.480469 71.679688 179.449219 72.570313 179.429688 C 72.988281 176.730469 73.519531 174.039063 74.128906 171.371094 "/>
<path style=" stroke:none;fill-rule:nonzero;fill:rgb(87.5%,77.734375%,46.655273%);fill-opacity:1;" d="M 75.539063 172.691406 C 79.230469 175.230469 81.941406 178.898438 85.660156 181.398438 C 86.699219 182.328125 87.660156 183.339844 88.660156 184.308594 C 90.851563 186.050781 93.648438 186.609375 96.28125 187.359375 C 96.28125 189.769531 96.269531 192.191406 96.269531 194.609375 C 93.941406 194.421875 91.558594 194.5 89.300781 193.871094 C 86.101563 191.738281 82.96875 189.238281 81.121094 185.800781 C 78.839844 181.640625 75.898438 177.558594 75.539063 172.691406 "/>
<path style=" stroke:none;fill-rule:nonzero;fill:rgb(57.226563%,49.021912%,28.637695%);fill-opacity:1;" d="M 85.660156 181.398438 C 89.230469 179.550781 92.570313 177.269531 96.238281 175.621094 C 96.230469 177.679688 96.210938 179.730469 96.300781 181.789063 C 93.640625 182.210938 90.539063 181.980469 88.660156 184.308594 C 87.660156 183.339844 86.699219 182.328125 85.660156 181.398438 "/>
<path style=" stroke:none;fill-rule:nonzero;fill:rgb(76.951599%,65.818787%,34.910583%);fill-opacity:1;" d="M 88.660156 184.308594 C 90.539063 181.980469 93.640625 182.210938 96.300781 181.789063 C 96.28125 183.640625 96.28125 185.5 96.28125 187.359375 C 93.648438 186.609375 90.851563 186.050781 88.660156 184.308594 "/>
<path style=" stroke:none;fill-rule:nonzero;fill:rgb(75.389099%,59.959412%,22.75238%);fill-opacity:1;" d="M 233.570313 181.980469 C 234.011719 182.328125 234.898438 183.019531 235.339844 183.371094 C 236.328125 183.128906 237.308594 182.890625 238.308594 182.648438 C 238.75 184.621094 239.660156 186.429688 240.210938 188.371094 C 239.53125 191.320313 238.328125 194.179688 236.710938 196.738281 C 234.800781 197.851563 232.558594 198.339844 230.851563 199.789063 C 229.121094 200.910156 227.558594 202.980469 225.238281 202.25 C 228.949219 195.929688 231.660156 189.050781 233.570313 181.980469 "/>
<path style=" stroke:none;fill-rule:nonzero;fill:rgb(89.84375%,79.6875%,47.851563%);fill-opacity:1;" d="M 60.980469 190.070313 C 61.71875 191.308594 62.519531 192.511719 63.261719 193.761719 C 65.371094 201.941406 68.269531 210.511719 74.238281 216.699219 C 74.308594 221.148438 74.082031 225.601563 74.332031 230.050781 C 74.339844 231.648438 75.128906 233.839844 77.101563 233.679688 C 82.699219 233.917969 88.320313 233.699219 93.929688 233.71875 C 91.75 236.601563 93.339844 240.019531 93.398438 243.230469 C 93.460938 247.011719 95.449219 250.359375 96.03125 254.03125 C 94.449219 258.03125 91.808594 261.480469 89.71875 265.210938 C 87.628906 265.519531 85.441406 264.691406 83.429688 265.269531 C 82.238281 266.910156 81.582031 269.230469 79.308594 269.667969 C 68.589844 263.011719 58.5 255.238281 49.851563 246.011719 C 53.679688 238.238281 56.917969 229.808594 56.179688 220.980469 C 55.601563 217.339844 58.359375 214.441406 58.929688 211.011719 C 58.839844 208.988281 57.320313 207.398438 56.410156 205.679688 C 59.660156 201.128906 60.851563 195.578125 60.980469 190.070313 "/>
<path style=" stroke:none;fill-rule:nonzero;fill:rgb(82.421875%,69.334412%,34.910583%);fill-opacity:1;" d="M 63.261719 193.761719 C 66.140625 195.398438 67.378906 198.710938 69.558594 201.082031 C 69.761719 200.589844 70.167969 199.601563 70.371094 199.109375 C 71.648438 199.890625 72.917969 200.667969 74.191406 201.449219 C 74.320313 206.53125 74.289063 211.621094 74.238281 216.699219 C 68.269531 210.511719 65.371094 201.941406 63.261719 193.761719 "/>
<path style=" stroke:none;fill-rule:nonzero;fill:rgb(72.851563%,56.443787%,25.097656%);fill-opacity:1;" d="M 245.328125 200.609375 C 246.28125 201.738281 247.171875 202.929688 247.921875 204.210938 C 248.429688 210.148438 249.761719 216.011719 249.820313 222 C 249.96875 230.082031 250.089844 238.160156 250.46875 246.230469 C 241.480469 255.738281 231.058594 263.949219 219.691406 270.410156 C 215.378906 267.320313 210.421875 269.710938 206.488281 272.167969 C 207.21875 270.730469 208.308594 269.558594 209.53125 268.53125 C 211.941406 266.519531 212.878906 263.28125 215.398438 261.371094 C 218 259.03125 221.480469 257.699219 223.53125 254.78125 C 225.601563 250.308594 230.121094 247.878906 232.839844 243.890625 C 235.378906 240.238281 239.558594 236.878906 239.171875 232 C 238.988281 227.808594 239.839844 223.699219 240.328125 219.570313 C 240.46875 216.558594 240.929688 213.519531 242.210938 210.769531 C 244.960938 208.140625 244.238281 203.980469 245.328125 200.609375 "/>
<path style=" stroke:none;fill-rule:nonzero;fill:rgb(84.764099%,75.78125%,45.092773%);fill-opacity:1;" d="M 228.71875 209.679688 C 231.101563 207.167969 234.410156 205.429688 237.960938 206 C 240.410156 206.25 241.011719 209.070313 242.210938 210.769531 C 240.929688 213.519531 240.46875 216.558594 240.328125 219.570313 C 239.839844 223.699219 238.988281 227.808594 239.171875 232 C 239.558594 236.878906 235.378906 240.238281 232.839844 243.890625 C 230.121094 247.878906 225.601563 250.308594 223.53125 254.78125 C 222.078125 254.789063 220.628906 254.808594 219.179688 254.832031 C 222.828125 249.25 225.121094 242.960938 228.019531 237 C 228.691406 236.019531 228.398438 234.941406 228.058594 233.917969 C 227.371094 232.199219 228.238281 230.417969 228.148438 228.660156 C 227.851563 226.851563 227.089844 225.160156 226.488281 223.441406 C 223.398438 222.871094 220.289063 222.082031 217.128906 222.261719 C 213.199219 222.96875 210.480469 226.261719 206.941406 227.820313 C 205.25 228.539063 203.339844 228.71875 201.769531 229.71875 C 198.628906 232.390625 197.878906 237.050781 194.238281 239.269531 C 190.691406 241.691406 187.558594 244.640625 184.230469 247.339844 C 182.269531 249.167969 179.410156 247.808594 177.050781 248.199219 C 174.96875 249.261719 173.511719 251.199219 171.539063 252.429688 C 168.988281 253.289063 165.96875 252.929688 163.851563 254.832031 C 160.390625 257.832031 155.300781 256.96875 151.640625 259.640625 C 147.5 261.75 145.640625 266.417969 141.679688 268.75 C 138.699219 270.53125 136.351563 273.121094 133.980469 275.621094 C 133.339844 274.832031 132.699219 274.050781 132.070313 273.269531 C 128.769531 275.179688 126.078125 278.238281 122.21875 279.050781 C 120.839844 277.410156 119.5 275.410156 117.121094 275.308594 C 117.511719 274.511719 117.890625 273.710938 118.25 272.898438 C 117.429688 271.839844 116.5 270.789063 115.011719 271.011719 C 111.390625 270.570313 107.75 271.339844 104.128906 271.070313 C 101.671875 269.761719 99.582031 267.769531 98.101563 265.410156 C 100.878906 262.101563 102.171875 257.910156 104.488281 254.332031 C 105.871094 252.410156 108.101563 253.941406 109.839844 254.371094 C 110.558594 252.710938 111.289063 251.058594 112.011719 249.410156 C 112.988281 249.53125 113.96875 249.648438 114.949219 249.78125 C 117.308594 247.628906 118.691406 244.75 119.601563 241.738281 C 121.179688 241.269531 122.761719 240.800781 124.328125 240.320313 C 124.308594 237.699219 125.511719 235.449219 127.398438 233.699219 C 140.601563 233.808594 153.800781 233.710938 167 233.75 C 182.171875 234.089844 197.398438 229.140625 209.480469 219.960938 C 212.019531 218.070313 214.308594 215.878906 216.488281 213.601563 C 220.75 213.179688 225.589844 213.03125 228.71875 209.679688 "/>
<path style=" stroke:none;fill-rule:nonzero;fill:rgb(87.889099%,80.46875%,50.584412%);fill-opacity:1;" d="M 206.941406 227.820313 C 210.480469 226.261719 213.199219 222.96875 217.128906 222.261719 C 220.289063 222.082031 223.398438 222.871094 226.488281 223.441406 C 227.089844 225.160156 227.851563 226.851563 228.148438 228.660156 C 228.238281 230.417969 227.371094 232.199219 228.058594 233.917969 C 228.398438 234.941406 228.691406 236.019531 228.019531 237 C 225.121094 242.960938 222.828125 249.25 219.179688 254.832031 C 220.628906 254.808594 222.078125 254.789063 223.53125 254.78125 C 221.480469 257.699219 218 259.03125 215.398438 261.371094 C 212.878906 263.28125 211.941406 266.519531 209.53125 268.53125 C 208.308594 269.558594 207.21875 270.730469 206.488281 272.167969 C 201.320313 275.601563 195.210938 277.160156 189.699219 279.929688 C 189.660156 278.910156 189.621094 277.890625 189.589844 276.878906 C 185.609375 277.769531 181.609375 278.539063 177.699219 279.667969 C 174.339844 280.589844 172.28125 283.660156 169.308594 285.261719 C 166.941406 286.128906 164.199219 286.339844 162.441406 288.378906 C 144.269531 289.878906 125.820313 288.058594 108.378906 282.710938 C 110.328125 282.089844 112.28125 281.429688 114.199219 280.691406 C 114.460938 278.558594 115.628906 276.800781 117.121094 275.308594 C 119.5 275.410156 120.839844 277.410156 122.21875 279.050781 C 126.078125 278.238281 128.769531 275.179688 132.070313 273.269531 C 132.699219 274.050781 133.339844 274.832031 133.980469 275.621094 C 136.351563 273.121094 138.699219 270.53125 141.679688 268.75 C 145.640625 266.417969 147.5 261.75 151.640625 259.640625 C 155.300781 256.96875 160.390625 257.832031 163.851563 254.832031 C 165.96875 252.929688 168.988281 253.289063 171.539063 252.429688 C 173.511719 251.199219 174.96875 249.261719 177.050781 248.199219 C 179.410156 247.808594 182.269531 249.167969 184.230469 247.339844 C 187.558594 244.640625 190.691406 241.691406 194.238281 239.269531 C 197.878906 237.050781 198.628906 232.390625 201.769531 229.71875 C 203.339844 228.71875 205.25 228.539063 206.941406 227.820313 "/>
<path style=" stroke:none;fill-rule:nonzero;fill:rgb(76.171875%,64.256287%,30.200195%);fill-opacity:1;" d="M 93.929688 233.71875 C 95.160156 233.71875 96.390625 233.730469 97.621094 233.738281 C 100.46875 237.089844 104.148438 240.808594 108.851563 240.808594 C 112.558594 240.441406 110.71875 236.039063 110.230469 233.71875 C 115.949219 233.710938 121.679688 233.71875 127.398438 233.699219 C 125.511719 235.449219 124.308594 237.699219 124.328125 240.320313 C 122.761719 240.800781 121.179688 241.269531 119.601563 241.738281 C 118.691406 244.75 117.308594 247.628906 114.949219 249.78125 C 113.96875 249.648438 112.988281 249.53125 112.011719 249.410156 C 111.289063 251.058594 110.558594 252.710938 109.839844 254.371094 C 108.101563 253.941406 105.871094 252.410156 104.488281 254.332031 C 102.171875 257.910156 100.878906 262.101563 98.101563 265.410156 C 97.601563 264.398438 97.109375 263.390625 96.640625 262.371094 C 94.351563 263.371094 92.058594 264.351563 89.71875 265.210938 C 91.808594 261.480469 94.449219 258.03125 96.03125 254.03125 C 95.449219 250.359375 93.460938 247.011719 93.398438 243.230469 C 93.339844 240.019531 91.75 236.601563 93.929688 233.71875 "/>
<path style=" stroke:none;fill-rule:nonzero;fill:rgb(82.421875%,69.334412%,34.910583%);fill-opacity:1;" d="M 97.621094 233.738281 C 101.820313 233.71875 106.03125 233.71875 110.230469 233.71875 C 110.71875 236.039063 112.558594 240.441406 108.851563 240.808594 C 104.148438 240.808594 100.46875 237.089844 97.621094 233.738281 "/>
<path style=" stroke:none;fill-rule:nonzero;fill:rgb(80.859375%,68.943787%,32.151794%);fill-opacity:1;" d="M 89.71875 265.210938 C 92.058594 264.351563 94.351563 263.371094 96.640625 262.371094 C 97.109375 263.390625 97.601563 264.398438 98.101563 265.410156 C 99.582031 267.769531 101.671875 269.761719 104.128906 271.070313 C 107.75 271.339844 111.390625 270.570313 115.011719 271.011719 C 116.5 270.789063 117.429688 271.839844 118.25 272.898438 C 117.890625 273.710938 117.511719 274.511719 117.121094 275.308594 C 115.628906 276.800781 114.460938 278.558594 114.199219 280.691406 C 112.28125 281.429688 110.328125 282.089844 108.378906 282.710938 C 98.269531 279.359375 88.539063 274.980469 79.308594 269.667969 C 81.582031 269.230469 82.238281 266.910156 83.429688 265.269531 C 85.441406 264.691406 87.628906 265.519531 89.71875 265.210938 "/>
<path style=" stroke:none;fill-rule:nonzero;fill:rgb(82.421875%,72.851563%,41.967773%);fill-opacity:1;" d="M 206.488281 272.167969 C 210.421875 269.710938 215.378906 267.320313 219.691406 270.410156 C 202.28125 280.539063 182.558594 286.960938 162.441406 288.378906 C 164.199219 286.339844 166.941406 286.128906 169.308594 285.261719 C 172.28125 283.660156 174.339844 280.589844 177.699219 279.667969 C 181.609375 278.539063 185.609375 277.769531 189.589844 276.878906 C 189.621094 277.890625 189.660156 278.910156 189.699219 279.929688 C 195.210938 277.160156 201.320313 275.601563 206.488281 272.167969 "/>
</g>
</svg>
