<svg xmlns="http://www.w3.org/2000/svg" viewBox="0 0 64 64"><g id="_10-Plus" data-name="10-Plus"><rect x="1" y="51" width="58" height="4" style="fill:#d6e0eb"/><polygon points="1 55 1 51 59 51 59 53 6 53 6 54 59 54 59 55 1 55" style="fill:#8394b2"/><rect x="1" y="15" width="58" height="36" style="fill:#fbfbfb"/><path d="M1,15V51H59V45H34C19.088,45,7,33.912,7,19V15Z" style="fill:#d6e0eb"/><path d="M1,4V15H59V4Zm12,7H5V7h8Zm14,0H19V7h8Zm14,0H33V7h8Zm14,0H47V7h8Z" style="fill:#e63b47"/><path d="M8,1h2a1,1,0,0,1,1,1V8a0,0,0,0,1,0,0H7A0,0,0,0,1,7,8V2A1,1,0,0,1,8,1Z" style="fill:#d6e0eb"/><path d="M10,6H9A1,1,0,0,1,8,5V2A1,1,0,0,1,9,1H8A1,1,0,0,0,7,2V8h4V5A1,1,0,0,1,10,6Z" style="fill:#a8b7d4"/><path d="M22,1h2a1,1,0,0,1,1,1V8a0,0,0,0,1,0,0H21a0,0,0,0,1,0,0V2A1,1,0,0,1,22,1Z" style="fill:#d6e0eb"/><path d="M24,6H23a1,1,0,0,1-1-1V2a1,1,0,0,1,1-1H22a1,1,0,0,0-1,1V8h4V5A1,1,0,0,1,24,6Z" style="fill:#a8b7d4"/><path d="M36,1h2a1,1,0,0,1,1,1V8a0,0,0,0,1,0,0H35a0,0,0,0,1,0,0V2A1,1,0,0,1,36,1Z" style="fill:#d6e0eb"/><path d="M38,6H37a1,1,0,0,1-1-1V2a1,1,0,0,1,1-1H36a1,1,0,0,0-1,1V8h4V5A1,1,0,0,1,38,6Z" style="fill:#a8b7d4"/><path d="M50,1h2a1,1,0,0,1,1,1V8a0,0,0,0,1,0,0H49a0,0,0,0,1,0,0V2A1,1,0,0,1,50,1Z" style="fill:#d6e0eb"/><path d="M52,6H51a1,1,0,0,1-1-1V2a1,1,0,0,1,1-1H50a1,1,0,0,0-1,1V8h4V5A1,1,0,0,1,52,6Z" style="fill:#a8b7d4"/><rect x="6" y="19" width="12" height="8" style="fill:#0dcef9"/><rect x="6" y="27" width="12" height="4" style="fill:#edf4fa"/><rect x="24" y="19" width="12" height="8" style="fill:#4077de"/><rect x="24" y="27" width="12" height="4" style="fill:#edf4fa"/><rect x="42" y="19" width="12" height="8" style="fill:#e63b47"/><rect x="42" y="27" width="12" height="4" style="fill:#edf4fa"/><path d="M7,19H6v8H8.245A26.026,26.026,0,0,1,7,19Z" style="fill:#4aa4f2"/><path d="M6,27v4H9.921a25.134,25.134,0,0,1-1.676-4Z" style="fill:#c1cfe8"/><circle cx="49" cy="49" r="14" style="fill:#4077de"/><path d="M39,43a13.971,13.971,0,0,1,.748-4.488,13.991,13.991,0,1,0,22.5,14.976A13.984,13.984,0,0,1,39,43Z" style="fill:#3e6ad1"/><polygon points="57 46 52 46 52 41 46 41 46 46 41 46 41 52 46 52 46 57 52 57 52 52 57 52 57 46" style="fill:#fff"/><path d="M2,44H0V55a1,1,0,0,0,1,1H31V54H2V52H31V50H2Z"/><rect x="58" y="31" width="2" height="2"/><path d="M2,16H58V29h2V4a1,1,0,0,0-1-1H56V5h2v9H2V5H4V3H1A1,1,0,0,0,0,4V42H2Z"/><path d="M4,11a1,1,0,0,0,1,1h8a1,1,0,0,0,1-1V7a1,1,0,0,0-1-1H12V5h8V6H19a1,1,0,0,0-1,1v4a1,1,0,0,0,1,1h8a1,1,0,0,0,1-1V7a1,1,0,0,0-1-1H26V5h8V6H33a1,1,0,0,0-1,1v4a1,1,0,0,0,1,1h8a1,1,0,0,0,1-1V7a1,1,0,0,0-1-1H40V5h8V6H47a1,1,0,0,0-1,1v4a1,1,0,0,0,1,1h8a1,1,0,0,0,1-1V7a1,1,0,0,0-1-1H54V2a2,2,0,0,0-2-2H50a2,2,0,0,0-2,2V3H40V2a2,2,0,0,0-2-2H36a2,2,0,0,0-2,2V3H26V2a2,2,0,0,0-2-2H22a2,2,0,0,0-2,2V3H12V2a2,2,0,0,0-2-2H8A2,2,0,0,0,6,2V6H5A1,1,0,0,0,4,7ZM53,9a1,1,0,0,0,1-1v2H48V8a1,1,0,0,0,1,1ZM50,2h2V7H50ZM39,9a1,1,0,0,0,1-1v2H34V8a1,1,0,0,0,1,1ZM36,2h2V7H36ZM25,9a1,1,0,0,0,1-1v2H20V8a1,1,0,0,0,1,1ZM22,2h2V7H22ZM8,2h2V7H8ZM6,8A1,1,0,0,0,7,9h4a1,1,0,0,0,1-1v2H6Z"/><path d="M49,34A15,15,0,1,0,64,49,15.017,15.017,0,0,0,49,34Zm0,28A13,13,0,1,1,62,49,13.015,13.015,0,0,1,49,62Z"/><path d="M57,45H53V41a1,1,0,0,0-1-1H46a1,1,0,0,0-1,1v4H41a1,1,0,0,0-1,1v6a1,1,0,0,0,1,1h4v4a1,1,0,0,0,1,1h6a1,1,0,0,0,1-1V53h4a1,1,0,0,0,1-1V46A1,1,0,0,0,57,45Zm-1,6H52a1,1,0,0,0-1,1v4H47V52a1,1,0,0,0-1-1H42V47h4a1,1,0,0,0,1-1V42h4v4a1,1,0,0,0,1,1h4Z"/><path d="M18,32a1,1,0,0,0,1-1V19a1,1,0,0,0-1-1H6a1,1,0,0,0-1,1V31a1,1,0,0,0,1,1ZM7,30V28H17v2ZM17,20v6H7V20Z"/><path d="M37,31V19a1,1,0,0,0-1-1H24a1,1,0,0,0-1,1V31a1,1,0,0,0,1,1H36A1,1,0,0,0,37,31ZM35,20v6H25V20ZM25,30V28H35v2Z"/><path d="M42,18a1,1,0,0,0-1,1V31a1,1,0,0,0,1,1H54a1,1,0,0,0,1-1V19a1,1,0,0,0-1-1Zm11,2v6H43V20ZM43,30V28H53v2Z"/><rect x="5" y="35" width="21" height="2"/><rect x="5" y="39" width="21" height="2"/><rect x="5" y="43" width="21" height="2"/></g></svg>