<svg xmlns="http://www.w3.org/2000/svg" viewBox="0 0 64 64"><g id="_17-Time" data-name="17-Time"><rect x="1" y="51" width="58" height="4" style="fill:#d6e0eb"/><polygon points="1 55 1 51 59 51 59 53 6 53 6 54 59 54 59 55 1 55" style="fill:#8394b2"/><rect x="1" y="15" width="58" height="36" style="fill:#fbfbfb"/><path d="M1,15V51H59V45H34C19.088,45,7,33.912,7,19V15Z" style="fill:#d6e0eb"/><path d="M1,4V15H59V4Zm12,7H5V7h8Zm14,0H19V7h8Zm14,0H33V7h8Zm14,0H47V7h8Z" style="fill:#e63b47"/><path d="M8,1h2a1,1,0,0,1,1,1V8a0,0,0,0,1,0,0H7A0,0,0,0,1,7,8V2A1,1,0,0,1,8,1Z" style="fill:#d6e0eb"/><path d="M10,6H9A1,1,0,0,1,8,5V2A1,1,0,0,1,9,1H8A1,1,0,0,0,7,2V8h4V5A1,1,0,0,1,10,6Z" style="fill:#a8b7d4"/><polyline points="7 8 5 8 5 7 7 7" style="fill:#d6e0eb"/><path d="M22,1h2a1,1,0,0,1,1,1V8a0,0,0,0,1,0,0H21a0,0,0,0,1,0,0V2A1,1,0,0,1,22,1Z" style="fill:#d6e0eb"/><path d="M24,6H23a1,1,0,0,1-1-1V2a1,1,0,0,1,1-1H22a1,1,0,0,0-1,1V8h4V5A1,1,0,0,1,24,6Z" style="fill:#a8b7d4"/><path d="M36,1h2a1,1,0,0,1,1,1V8a0,0,0,0,1,0,0H35a0,0,0,0,1,0,0V2A1,1,0,0,1,36,1Z" style="fill:#d6e0eb"/><path d="M38,6H37a1,1,0,0,1-1-1V2a1,1,0,0,1,1-1H36a1,1,0,0,0-1,1V8h4V5A1,1,0,0,1,38,6Z" style="fill:#a8b7d4"/><path d="M50,1h2a1,1,0,0,1,1,1V8a0,0,0,0,1,0,0H49a0,0,0,0,1,0,0V2A1,1,0,0,1,50,1Z" style="fill:#d6e0eb"/><path d="M52,6H51a1,1,0,0,1-1-1V2a1,1,0,0,1,1-1H50a1,1,0,0,0-1,1V8h4V5A1,1,0,0,1,52,6Z" style="fill:#a8b7d4"/><rect x="9" y="19" width="6" height="6" style="fill:#a8b7d4"/><rect x="21" y="19" width="6" height="6" style="fill:#a8b7d4"/><rect x="33" y="19" width="6" height="6" style="fill:#a8b7d4"/><rect x="45" y="19" width="6" height="6" style="fill:#a8b7d4"/><rect x="9" y="30" width="6" height="6" style="fill:#a8b7d4"/><rect x="21" y="30" width="6" height="6" style="fill:#a8b7d4"/><rect x="33" y="30" width="6" height="6" style="fill:#a8b7d4"/><rect x="21" y="41" width="6" height="6" style="fill:#a8b7d4"/><rect x="9" y="40" width="6" height="6" style="fill:#8394b2"/><rect x="45" y="30" width="6" height="6" style="fill:#a8b7d4"/><rect x="45" y="41" width="6" height="6" style="fill:#a8b7d4"/><path d="M9,36h4.377a25.157,25.157,0,0,1-3.954-6H9Z" style="fill:#8394b2"/><path d="M27,47V44.149A27.6,27.6,0,0,1,21,41.9V47Z" style="fill:#8394b2"/><rect x="9" y="40" width="6" height="6" style="fill:#8394b2"/><rect x="33" y="41" width="6" height="6" style="fill:#a8b7d4"/><path d="M39,47V45H34c-.335,0-.668-.012-1-.023V47Z" style="fill:#8394b2"/><circle cx="52" cy="52" r="11" style="fill:#fbfbfb"/><path d="M45,48a10.93,10.93,0,0,1,1.49-5.51A10.993,10.993,0,1,0,61.51,57.51,10.986,10.986,0,0,1,45,48Z" style="fill:#c1cfe8"/><rect x="48" y="34" width="8" height="4" rx="2" style="fill:#3e6ad1"/><path d="M54,36H50a1.994,1.994,0,0,1-1.723-1A1.988,1.988,0,0,0,50,38h4a1.988,1.988,0,0,0,1.723-3A1.994,1.994,0,0,1,54,36Z" style="fill:#004080"/><path d="M54,41.19V38H50v3.19a10.621,10.621,0,0,1,4,0Z" style="fill:#4077de"/><path d="M52,39h2V38H50v3.19c.329-.06.662-.108,1-.14V40A1,1,0,0,1,52,39Z" style="fill:#005eba"/><path d="M2,44H0V55a1,1,0,0,0,1,1H38V54H2V52H38V50H2Z"/><rect x="58" y="33" width="2" height="2"/><path d="M2,16H58V31h2V4a1,1,0,0,0-1-1H56V5h2v9H2V5H4V3H1A1,1,0,0,0,0,4V42H2Z"/><path d="M4,11a1,1,0,0,0,1,1h8a1,1,0,0,0,1-1V7a1,1,0,0,0-1-1H12V5h8V6H19a1,1,0,0,0-1,1v4a1,1,0,0,0,1,1h8a1,1,0,0,0,1-1V7a1,1,0,0,0-1-1H26V5h8V6H33a1,1,0,0,0-1,1v4a1,1,0,0,0,1,1h8a1,1,0,0,0,1-1V7a1,1,0,0,0-1-1H40V5h8V6H47a1,1,0,0,0-1,1v4a1,1,0,0,0,1,1h8a1,1,0,0,0,1-1V7a1,1,0,0,0-1-1H54V2a2,2,0,0,0-2-2H50a2,2,0,0,0-2,2V3H40V2a2,2,0,0,0-2-2H36a2,2,0,0,0-2,2V3H26V2a2,2,0,0,0-2-2H22a2,2,0,0,0-2,2V3H12V2a2,2,0,0,0-2-2H8A2,2,0,0,0,6,2V6H5A1,1,0,0,0,4,7ZM53,9a1,1,0,0,0,1-1v2H48V8a1,1,0,0,0,1,1ZM50,2h2V7H50ZM39,9a1,1,0,0,0,1-1v2H34V8a1,1,0,0,0,1,1ZM36,2h2V7H36ZM25,9a1,1,0,0,0,1-1v2H20V8a1,1,0,0,0,1,1ZM22,2h2V7H22ZM8,2h2V7H8ZM6,8A1,1,0,0,0,7,9h4a1,1,0,0,0,1-1v2H6Z"/><path d="M16,19a1,1,0,0,0-1-1H9a1,1,0,0,0-1,1v6a1,1,0,0,0,1,1h6a1,1,0,0,0,1-1Zm-2,5H10V20h4Z"/><path d="M28,19a1,1,0,0,0-1-1H21a1,1,0,0,0-1,1v6a1,1,0,0,0,1,1h6a1,1,0,0,0,1-1Zm-2,5H22V20h4Z"/><path d="M40,19a1,1,0,0,0-1-1H33a1,1,0,0,0-1,1v6a1,1,0,0,0,1,1h6a1,1,0,0,0,1-1Zm-2,5H34V20h4Z"/><path d="M45,18a1,1,0,0,0-1,1v6a1,1,0,0,0,1,1h6a1,1,0,0,0,1-1V19a1,1,0,0,0-1-1Zm5,6H46V20h4Z"/><path d="M16,30a1,1,0,0,0-1-1H9a1,1,0,0,0-1,1v6a1,1,0,0,0,1,1h6a1,1,0,0,0,1-1Zm-2,5H10V31h4Z"/><path d="M28,30a1,1,0,0,0-1-1H21a1,1,0,0,0-1,1v6a1,1,0,0,0,1,1h6a1,1,0,0,0,1-1Zm-2,5H22V31h4Z"/><path d="M39,29H33a1,1,0,0,0-1,1v6a1,1,0,0,0,1,1h6a1,1,0,0,0,1-1V30A1,1,0,0,0,39,29Zm-1,6H34V31h4Z"/><path d="M15,40H9a1,1,0,0,0-1,1v6a1,1,0,0,0,1,1h6a1,1,0,0,0,1-1V41A1,1,0,0,0,15,40Zm-1,6H10V42h4Z"/><path d="M27,40H21a1,1,0,0,0-1,1v6a1,1,0,0,0,1,1h6a1,1,0,0,0,1-1V41A1,1,0,0,0,27,40Zm-1,6H22V42h4Z"/><path d="M59.509,42.654,60.524,41.3l1.851,1.48,1.25-1.562-5-4-1.25,1.562,1.587,1.27-1.111,1.482A11.879,11.879,0,0,0,55,40.4V38.816A2.993,2.993,0,0,0,54,33H50a2.993,2.993,0,0,0-1,5.816V40.4a12,12,0,1,0,10.509,2.259ZM50,35h4a1,1,0,0,1,0,2H50a1,1,0,0,1,0-2Zm1,4h2v1.051c-.331-.028-.662-.051-1-.051s-.669.023-1,.051Zm1,23A10,10,0,1,1,62,52,10.011,10.011,0,0,1,52,62Z"/><path d="M45.5,47.132,44.5,48.868l7,4A1,1,0,0,0,52,53h6V51H52.266Z"/><path d="M40,41a1,1,0,0,0-1-1H33a1,1,0,0,0-1,1v6a1,1,0,0,0,1,1h6a1,1,0,0,0,1-1Zm-2,5H34V42h4Z"/></g></svg>