<?xml version="1.0" encoding="iso-8859-1"?>
<!-- Generator: Adobe Illustrator 19.0.0, SVG Export Plug-In . SVG Version: 6.00 Build 0)  -->
<svg xmlns="http://www.w3.org/2000/svg" xmlns:xlink="http://www.w3.org/1999/xlink" version="1.1" id="Layer_1" x="0px" y="0px" viewBox="0 0 512 512" style="enable-background:new 0 0 512 512;" xml:space="preserve">
<path style="fill:#E4EAF8;" d="M485.083,485.083H26.917c-10.122,0-18.327-8.205-18.327-18.327V81.897  c0-10.122,8.205-18.327,18.327-18.327h458.166c10.122,0,18.327,8.205,18.327,18.327v384.859  C503.409,476.878,495.205,485.083,485.083,485.083z"/>
<path style="fill:#FF5050;" d="M485.083,63.57H26.917c-10.122,0-18.327,8.205-18.327,18.327v54.98h494.819v-54.98  C503.409,71.775,495.205,63.57,485.083,63.57z"/>
<g>
	<path style="fill:#C7CFE2;" d="M191.857,100.224L191.857,100.224c-10.122,0-18.327-8.205-18.327-18.327V45.244   c0-10.122,8.205-18.327,18.327-18.327l0,0c10.122,0,18.327,8.205,18.327,18.327v36.653   C210.183,92.019,201.979,100.224,191.857,100.224z"/>
	<path style="fill:#C7CFE2;" d="M118.55,246.837H63.57c-5.06,0-9.163-4.103-9.163-9.163V201.02c0-5.06,4.103-9.163,9.163-9.163   h54.98c5.06,0,9.163,4.103,9.163,9.163v36.653C127.714,242.734,123.611,246.837,118.55,246.837z"/>
	<path style="fill:#C7CFE2;" d="M228.51,246.837h-54.98c-5.06,0-9.163-4.103-9.163-9.163V201.02c0-5.06,4.103-9.163,9.163-9.163   h54.98c5.06,0,9.163,4.103,9.163,9.163v36.653C237.673,242.734,233.571,246.837,228.51,246.837z"/>
	<path style="fill:#C7CFE2;" d="M338.47,246.837h-54.98c-5.06,0-9.163-4.103-9.163-9.163V201.02c0-5.06,4.103-9.163,9.163-9.163   h54.98c5.06,0,9.163,4.103,9.163,9.163v36.653C347.633,242.734,343.53,246.837,338.47,246.837z"/>
</g>
<path style="fill:#FF5050;" d="M448.43,246.837h-54.98c-5.06,0-9.163-4.103-9.163-9.163V201.02c0-5.06,4.103-9.163,9.163-9.163  h54.98c5.06,0,9.163,4.103,9.163,9.163v36.653C457.593,242.734,453.49,246.837,448.43,246.837z"/>
<g>
	<path style="fill:#C7CFE2;" d="M118.55,338.47H63.57c-5.06,0-9.163-4.103-9.163-9.163v-36.653c0-5.06,4.103-9.163,9.163-9.163   h54.98c5.06,0,9.163,4.103,9.163,9.163v36.653C127.714,334.367,123.611,338.47,118.55,338.47z"/>
	<path style="fill:#C7CFE2;" d="M228.51,338.47h-54.98c-5.06,0-9.163-4.103-9.163-9.163v-36.653c0-5.06,4.103-9.163,9.163-9.163   h54.98c5.06,0,9.163,4.103,9.163,9.163v36.653C237.673,334.367,233.571,338.47,228.51,338.47z"/>
	<path style="fill:#C7CFE2;" d="M338.47,338.47h-54.98c-5.06,0-9.163-4.103-9.163-9.163v-36.653c0-5.06,4.103-9.163,9.163-9.163   h54.98c5.06,0,9.163,4.103,9.163,9.163v36.653C347.633,334.367,343.53,338.47,338.47,338.47z"/>
</g>
<path style="fill:#FF5050;" d="M448.43,338.47h-54.98c-5.06,0-9.163-4.103-9.163-9.163v-36.653c0-5.06,4.103-9.163,9.163-9.163  h54.98c5.06,0,9.163,4.103,9.163,9.163v36.653C457.593,334.367,453.49,338.47,448.43,338.47z"/>
<g>
	<path style="fill:#C7CFE2;" d="M118.55,430.103H63.57c-5.06,0-9.163-4.103-9.163-9.163v-36.653c0-5.06,4.103-9.163,9.163-9.163   h54.98c5.06,0,9.163,4.103,9.163,9.163v36.653C127.714,426,123.611,430.103,118.55,430.103z"/>
	<path style="fill:#C7CFE2;" d="M228.51,430.103h-54.98c-5.06,0-9.163-4.103-9.163-9.163v-36.653c0-5.06,4.103-9.163,9.163-9.163   h54.98c5.06,0,9.163,4.103,9.163,9.163v36.653C237.673,426,233.571,430.103,228.51,430.103z"/>
	<path style="fill:#C7CFE2;" d="M338.47,430.103h-54.98c-5.06,0-9.163-4.103-9.163-9.163v-36.653c0-5.06,4.103-9.163,9.163-9.163   h54.98c5.06,0,9.163,4.103,9.163,9.163v36.653C347.633,426,343.53,430.103,338.47,430.103z"/>
</g>
<path style="fill:#FF5050;" d="M448.43,430.103h-54.98c-5.06,0-9.163-4.103-9.163-9.163v-36.653c0-5.06,4.103-9.163,9.163-9.163  h54.98c5.06,0,9.163,4.103,9.163,9.163v36.653C457.593,426,453.49,430.103,448.43,430.103z"/>
<path style="fill:#AFB9D2;" d="M191.857,72.734c-10.121,0-18.327-8.206-18.327-18.327v27.49c0,10.121,8.206,18.327,18.327,18.327  s18.327-8.206,18.327-18.327v-27.49C210.183,64.528,201.978,72.734,191.857,72.734z"/>
<path style="fill:#C7CFE2;" d="M63.57,100.224L63.57,100.224c-10.122,0-18.327-8.205-18.327-18.327V45.244  c0-10.122,8.205-18.327,18.327-18.327l0,0c10.122,0,18.327,8.205,18.327,18.327v36.653C81.897,92.019,73.692,100.224,63.57,100.224z  "/>
<path style="fill:#AFB9D2;" d="M63.57,72.734c-10.121,0-18.327-8.206-18.327-18.327v27.49c0,10.121,8.206,18.327,18.327,18.327  s18.327-8.206,18.327-18.327v-27.49C81.897,64.528,73.691,72.734,63.57,72.734z"/>
<path style="fill:#C7CFE2;" d="M448.43,100.224L448.43,100.224c-10.122,0-18.327-8.205-18.327-18.327V45.244  c0-10.122,8.205-18.327,18.327-18.327l0,0c10.122,0,18.327,8.205,18.327,18.327v36.653  C466.756,92.019,458.552,100.224,448.43,100.224z"/>
<path style="fill:#AFB9D2;" d="M448.43,72.734c-10.121,0-18.327-8.206-18.327-18.327v27.49c0,10.121,8.206,18.327,18.327,18.327  s18.327-8.206,18.327-18.327v-27.49C466.756,64.528,458.55,72.734,448.43,72.734z"/>
<path style="fill:#C7CFE2;" d="M320.143,100.224L320.143,100.224c-10.122,0-18.327-8.205-18.327-18.327V45.244  c0-10.122,8.205-18.327,18.327-18.327l0,0c10.122,0,18.327,8.205,18.327,18.327v36.653  C338.47,92.019,330.265,100.224,320.143,100.224z"/>
<path style="fill:#AFB9D2;" d="M320.143,72.734c-10.121,0-18.327-8.206-18.327-18.327v27.49c0,10.121,8.206,18.327,18.327,18.327  s18.327-8.206,18.327-18.327v-27.49C338.47,64.528,330.264,72.734,320.143,72.734z"/>
<path d="M485.083,54.98h-9.736v-9.736c0-14.842-12.075-26.917-26.917-26.917s-26.917,12.075-26.917,26.917v9.736H347.06v-9.736  c0-14.842-12.075-26.917-26.917-26.917s-26.917,12.075-26.917,26.917v9.736h-74.452v-9.736c0-14.842-12.075-26.917-26.917-26.917  S164.94,30.402,164.94,45.244v9.736H90.488v-9.736c0-14.842-12.075-26.917-26.917-26.917S36.653,30.402,36.653,45.244v9.736h-9.736  C12.075,54.98,0,67.055,0,81.897v384.859c0,14.842,12.075,26.917,26.917,26.917h458.166c14.842,0,26.917-12.075,26.917-26.917  V81.897C512,67.055,499.925,54.98,485.083,54.98z M448.43,35.508c5.369,0,9.736,4.367,9.736,9.736v36.653  c0,5.369-4.367,9.736-9.736,9.736s-9.736-4.367-9.736-9.736V63.615c0-0.015,0.002-0.03,0.002-0.045c0-0.015-0.002-0.03-0.002-0.045  V45.244C438.694,39.875,443.061,35.508,448.43,35.508z M310.407,45.244c0-5.369,4.367-9.736,9.736-9.736  c5.369,0,9.736,4.367,9.736,9.736v36.653c0,5.369-4.367,9.736-9.736,9.736c-5.369,0-9.736-4.367-9.736-9.736V45.244z   M182.121,45.244c0-5.369,4.367-9.736,9.736-9.736c5.369,0,9.736,4.367,9.736,9.736v18.315c0,0.003,0,0.007,0,0.011  c0,0.005,0,0.007,0,0.011v18.315c0,5.369-4.367,9.736-9.736,9.736c-5.369,0-9.736-4.367-9.736-9.736V45.244z M53.834,45.244  c0-5.369,4.367-9.736,9.736-9.736s9.736,4.367,9.736,9.736v18.315c0,0.003,0,0.007,0,0.011c0,0.005,0,0.007,0,0.011v18.315  c0,5.369-4.367,9.736-9.736,9.736s-9.736-4.367-9.736-9.736V45.244z M485.083,476.492H26.917c-5.369,0-9.736-4.367-9.736-9.736  V145.468h9.736c4.744,0,8.591-3.846,8.591-8.591c0-4.744-3.846-8.591-8.591-8.591h-9.736V81.897c0-5.369,4.367-9.736,9.736-9.736  h9.736v9.736c0,14.842,12.075,26.917,26.917,26.917s26.917-12.075,26.917-26.917v-9.736h74.452v9.736  c0,14.842,12.075,26.917,26.917,26.917s26.917-12.075,26.917-26.917v-9.736h74.452v9.736c0,14.842,12.075,26.917,26.917,26.917  s26.917-12.075,26.917-26.917v-9.736h74.452v9.736c0,14.842,12.075,26.917,26.917,26.917s26.917-12.075,26.917-26.917v-9.736h9.736  c5.369,0,9.736,4.367,9.736,9.736v46.389h-28.058c-4.745,0-8.591,3.846-8.591,8.591c0,4.744,3.845,8.591,8.591,8.591h28.058v321.289  C494.819,472.125,490.451,476.492,485.083,476.492z"/>
<path d="M411.776,145.468h18.324c4.745,0,8.591-3.846,8.591-8.591c0-4.744-3.845-8.591-8.591-8.591h-18.324  c-4.745,0-8.591,3.846-8.591,8.591C403.186,141.621,407.031,145.468,411.776,145.468z"/>
<path d="M383.714,136.877c0-4.744-3.845-8.591-8.591-8.591H63.57c-4.744,0-8.591,3.846-8.591,8.591c0,4.744,3.846,8.591,8.591,8.591  h311.553C379.868,145.468,383.714,141.621,383.714,136.877z"/>
<path d="M118.55,183.266H63.57c-9.79,0-17.754,7.964-17.754,17.754v36.653c0,9.79,7.964,17.754,17.754,17.754h54.98  c9.79,0,17.754-7.964,17.754-17.754V201.02C136.304,191.23,128.34,183.266,118.55,183.266z M119.123,237.673  c0,0.316-0.257,0.573-0.573,0.573H63.57c-0.316,0-0.573-0.257-0.573-0.573V201.02c0-0.316,0.257-0.573,0.573-0.573h54.98  c0.316,0,0.573,0.257,0.573,0.573V237.673z"/>
<path d="M228.51,183.266h-54.98c-9.79,0-17.754,7.964-17.754,17.754v36.653c0,9.79,7.964,17.754,17.754,17.754h54.98  c9.79,0,17.754-7.964,17.754-17.754V201.02C246.264,191.23,238.3,183.266,228.51,183.266z M229.083,237.673  c0,0.316-0.257,0.573-0.573,0.573h-54.98c-0.316,0-0.573-0.257-0.573-0.573V201.02c0-0.316,0.257-0.573,0.573-0.573h54.98  c0.316,0,0.573,0.257,0.573,0.573V237.673z"/>
<path d="M338.47,183.266h-54.98c-9.79,0-17.754,7.964-17.754,17.754v36.653c0,9.79,7.964,17.754,17.754,17.754h54.98  c9.79,0,17.754-7.964,17.754-17.754V201.02C356.224,191.23,348.26,183.266,338.47,183.266z M339.043,237.673  c0,0.316-0.258,0.573-0.573,0.573h-54.98c-0.315,0-0.573-0.257-0.573-0.573V201.02c0-0.316,0.258-0.573,0.573-0.573h54.98  c0.315,0,0.573,0.257,0.573,0.573V237.673z"/>
<path d="M448.43,183.266h-54.98c-9.79,0-17.754,7.964-17.754,17.754v36.653c0,9.79,7.964,17.754,17.754,17.754h54.98  c9.79,0,17.754-7.964,17.754-17.754V201.02C466.183,191.23,458.219,183.266,448.43,183.266z M449.002,237.673  c0,0.316-0.258,0.573-0.573,0.573h-54.98c-0.315,0-0.573-0.257-0.573-0.573V201.02c0-0.316,0.258-0.573,0.573-0.573h54.98  c0.315,0,0.573,0.257,0.573,0.573V237.673z"/>
<path d="M118.55,274.899H63.57c-9.79,0-17.754,7.964-17.754,17.754v36.653c0,9.79,7.964,17.754,17.754,17.754h54.98  c9.79,0,17.754-7.964,17.754-17.754v-36.653C136.304,282.863,128.34,274.899,118.55,274.899z M119.123,329.306  c0,0.316-0.257,0.573-0.573,0.573H63.57c-0.316,0-0.573-0.257-0.573-0.573v-36.653c0-0.316,0.257-0.573,0.573-0.573h54.98  c0.316,0,0.573,0.257,0.573,0.573V329.306z"/>
<path d="M228.51,274.899h-54.98c-9.79,0-17.754,7.964-17.754,17.754v36.653c0,9.79,7.964,17.754,17.754,17.754h54.98  c9.79,0,17.754-7.964,17.754-17.754v-36.653C246.264,282.863,238.3,274.899,228.51,274.899z M229.083,329.306  c0,0.316-0.257,0.573-0.573,0.573h-54.98c-0.316,0-0.573-0.257-0.573-0.573v-36.653c0-0.316,0.257-0.573,0.573-0.573h54.98  c0.316,0,0.573,0.257,0.573,0.573V329.306z"/>
<path d="M338.47,274.899h-54.98c-9.79,0-17.754,7.964-17.754,17.754v36.653c0,9.79,7.964,17.754,17.754,17.754h54.98  c9.79,0,17.754-7.964,17.754-17.754v-36.653C356.224,282.863,348.26,274.899,338.47,274.899z M339.043,329.306  c0,0.316-0.258,0.573-0.573,0.573h-54.98c-0.315,0-0.573-0.257-0.573-0.573v-36.653c0-0.316,0.258-0.573,0.573-0.573h54.98  c0.315,0,0.573,0.257,0.573,0.573V329.306z"/>
<path d="M448.43,274.899h-54.98c-9.79,0-17.754,7.964-17.754,17.754v36.653c0,9.79,7.964,17.754,17.754,17.754h54.98  c9.79,0,17.754-7.964,17.754-17.754v-36.653C466.183,282.863,458.219,274.899,448.43,274.899z M449.002,329.306  c0,0.316-0.258,0.573-0.573,0.573h-54.98c-0.315,0-0.573-0.257-0.573-0.573v-36.653c0-0.316,0.258-0.573,0.573-0.573h54.98  c0.315,0,0.573,0.257,0.573,0.573V329.306z"/>
<path d="M118.55,366.532H63.57c-9.79,0-17.754,7.964-17.754,17.754v36.653c0,9.79,7.964,17.754,17.754,17.754h54.98  c9.79,0,17.754-7.964,17.754-17.754v-36.653C136.304,374.497,128.34,366.532,118.55,366.532z M119.123,420.94  c0,0.316-0.257,0.573-0.573,0.573H63.57c-0.316,0-0.573-0.257-0.573-0.573v-36.653c0-0.316,0.257-0.573,0.573-0.573h54.98  c0.316,0,0.573,0.257,0.573,0.573V420.94z"/>
<path d="M228.51,366.532h-54.98c-9.79,0-17.754,7.964-17.754,17.754v36.653c0,9.79,7.964,17.754,17.754,17.754h54.98  c9.79,0,17.754-7.964,17.754-17.754v-36.653C246.264,374.497,238.3,366.532,228.51,366.532z M229.083,420.94  c0,0.316-0.257,0.573-0.573,0.573h-54.98c-0.316,0-0.573-0.257-0.573-0.573v-36.653c0-0.316,0.257-0.573,0.573-0.573h54.98  c0.316,0,0.573,0.257,0.573,0.573V420.94z"/>
<path d="M338.47,366.532h-54.98c-9.79,0-17.754,7.964-17.754,17.754v36.653c0,9.79,7.964,17.754,17.754,17.754h54.98  c9.79,0,17.754-7.964,17.754-17.754v-36.653C356.224,374.497,348.26,366.532,338.47,366.532z M339.043,420.94  c0,0.316-0.258,0.573-0.573,0.573h-54.98c-0.315,0-0.573-0.257-0.573-0.573v-36.653c0-0.316,0.258-0.573,0.573-0.573h54.98  c0.315,0,0.573,0.257,0.573,0.573V420.94z"/>
<path d="M448.43,366.532h-54.98c-9.79,0-17.754,7.964-17.754,17.754v36.653c0,9.79,7.964,17.754,17.754,17.754h54.98  c9.79,0,17.754-7.964,17.754-17.754v-36.653C466.183,374.497,458.219,366.532,448.43,366.532z M449.002,420.94  c0,0.316-0.258,0.573-0.573,0.573h-54.98c-0.315,0-0.573-0.257-0.573-0.573v-36.653c0-0.316,0.258-0.573,0.573-0.573h54.98  c0.315,0,0.573,0.257,0.573,0.573V420.94z"/>
<g>
</g>
<g>
</g>
<g>
</g>
<g>
</g>
<g>
</g>
<g>
</g>
<g>
</g>
<g>
</g>
<g>
</g>
<g>
</g>
<g>
</g>
<g>
</g>
<g>
</g>
<g>
</g>
<g>
</g>
</svg>
