<svg xmlns="http://www.w3.org/2000/svg" viewBox="0 0 512 512"><defs><style>.cls-1{fill:#95cf93;}.cls-2{fill:#add9a9;}.cls-3{fill:#c9a4bd;}.cls-4{fill:#e1b4d0;}.cls-5{fill:#9f3471;}.cls-6{fill:#d5bd42;}.cls-7{fill:#e9d146;}.cls-8{fill:#f1cbbc;}.cls-9{fill:#dab8ad;}.cls-10{fill:#b13874;}.cls-11{fill:#c7a197;}.cls-12{fill:#1e2445;}.cls-13{fill:#fff;}.cls-14{fill:#5a4844;}.cls-15{fill:#6a554f;}.cls-16{fill:#d0a69b;}.cls-17{fill:#535eb0;}.cls-18{fill:#5c66c7;}.cls-19{fill:#7884db;}</style></defs><title>Beauty</title><g id="BULINE"><path class="cls-1" d="M512,256a254.79,254.79,0,0,1-47.44,148.47q-2.79,3.93-5.75,7.76-5.94,7.71-12.45,14.94-2.52,2.81-5.13,5.53a255.77,255.77,0,0,1-31.31,27.87q-6.07,4.59-12.44,8.81a254.68,254.68,0,0,1-33,18.57q-7.24,3.41-14.74,6.35A254.59,254.59,0,0,1,288.46,510h0a259,259,0,0,1-73.09-1.17,254.36,254.36,0,0,1-53.1-14.5q-8.72-3.44-17.1-7.47a252.51,252.51,0,0,1-30.68-17.49q-6.33-4.18-12.4-8.76a256.52,256.52,0,0,1-27.74-24.21q-4.49-4.5-8.73-9.23-3.75-4.17-7.29-8.49c-1.76-2.11-3.46-4.25-5.12-6.42q-6.21-8-11.75-16.54A255,255,0,0,1,9.29,324.57q-3-10.69-5-21.75A256.37,256.37,0,0,1,95.68,56.41q4.57-3.67,9.31-7.14,7.44-5.46,15.29-10.37A254.16,254.16,0,0,1,194.9,7.34c2.87-.71,5.76-1.36,8.67-2,2-.41,4-.8,6-1.16s4.1-.73,6.16-1a258.35,258.35,0,0,1,71.64-1.25c2.91.35,5.8.76,8.67,1.21C418.38,22.32,512,128.23,512,256Z"/></g><g id="Icons"><circle class="cls-2" cx="398.87" cy="124.63" r="29.18"/><circle class="cls-2" cx="36.41" cy="275.59" r="19.59"/><circle class="cls-2" cx="448.43" cy="296.45" r="31.61"/><circle class="cls-2" cx="118.34" cy="165.9" r="44.72"/><path class="cls-3" d="M256.26,83V94.43a5.41,5.41,0,0,1-5.41,5.41H241.3a5.41,5.41,0,0,1-5.41-5.41V83Z"/><path class="cls-3" d="M269.31,70.88V82.34a6.37,6.37,0,0,1-6.37,6.36H228.89a6.36,6.36,0,0,1-6.36-6.36V70.88Z"/><path class="cls-4" d="M269.31,70.88V82.34a6.37,6.37,0,0,1-6.37,6.36H234.3a6.36,6.36,0,0,1-6.36-6.36V70.88Z"/><rect class="cls-5" x="217.13" y="38.42" width="58.38" height="35.97"/><circle class="cls-6" cx="109.24" cy="287.81" r="29.69"/><circle class="cls-7" cx="118.83" cy="287.81" r="29.69"/><circle class="cls-6" cx="123.59" cy="247.59" r="27.95"/><circle class="cls-7" cx="136.28" cy="247.59" r="27.95"/><circle class="cls-6" cx="100.11" cy="326.34" r="27.47"/><circle class="cls-7" cx="110.82" cy="326.34" r="27.47"/><path class="cls-7" d="M466.24,392.24a44.87,44.87,0,0,1-1.68,12.23q-2.79,3.93-5.75,7.76-5.94,7.71-12.45,14.94-2.52,2.81-5.13,5.53a45.24,45.24,0,1,1,25-40.46Z"/><circle class="cls-7" cx="401.85" cy="287.81" r="30.13"/><circle class="cls-7" cx="387.52" cy="247.59" r="24.04"/><circle class="cls-7" cx="411.22" cy="329.69" r="30.34"/><path class="cls-7" d="M397.48,264V469.38A254.74,254.74,0,0,1,256,512a258.06,258.06,0,0,1-40.64-3.21,254.36,254.36,0,0,1-53.1-14.5q-8.72-3.44-17.1-7.47a252.51,252.51,0,0,1-30.68-17.49V264c0-1.48,0-2.94.1-4.4a103.44,103.44,0,0,1,6.06-31l.24-.67h0c.54-1.45,1.1-2.88,1.7-4.3A103.29,103.29,0,0,1,128.94,211v0a104.89,104.89,0,0,1,28.12-31.08h0l.32-.23h0a103.69,103.69,0,0,1,37.27-17.22c2.82-.67,5.67-1.23,8.58-1.66h0a101.81,101.81,0,0,1,10.83-1.05q2.4-.12,4.83-.12H293a104,104,0,0,1,39.86,7.88c2.41,1,4.78,2.08,7.09,3.25a103.72,103.72,0,0,1,18,11.55,0,0,0,0,1,0,0c1.32,1,2.6,2.11,3.86,3.23a103.81,103.81,0,0,1,15,16.23h0a104,104,0,0,1,12.5,21.89q1.31,3.09,2.4,6.29A104,104,0,0,1,397.48,264Z"/><path class="cls-7" d="M397.48,264V469.38A254.74,254.74,0,0,1,256,512a258.06,258.06,0,0,1-40.64-3.21,254.36,254.36,0,0,1-53.1-14.5q-8.72-3.44-17.1-7.47a252.51,252.51,0,0,1-30.68-17.49V264c0-1.48,0-2.94.1-4.4a103.44,103.44,0,0,1,6.06-31l.24-.67h0c.54-1.45,1.1-2.88,1.7-4.3A103.29,103.29,0,0,1,128.94,211v0a104.89,104.89,0,0,1,28.12-31.08h0l.32-.23h0a103.69,103.69,0,0,1,37.27-17.22c2.82-.67,5.67-1.23,8.58-1.66h0a101.81,101.81,0,0,1,10.83-1.05q2.4-.12,4.83-.12H293a104,104,0,0,1,39.86,7.88c2.41,1,4.78,2.08,7.09,3.25a103.72,103.72,0,0,1,18,11.55,0,0,0,0,1,0,0c1.32,1,2.6,2.11,3.86,3.23a103.81,103.81,0,0,1,15,16.23h0a104,104,0,0,1,12.5,21.89q1.31,3.09,2.4,6.29A104,104,0,0,1,397.48,264Z"/><path class="cls-6" d="M250.42,487.88c-7.57,9.53-21.65,16.31-35.06,20.91a254.36,254.36,0,0,1-53.1-14.5q-8.72-3.44-17.1-7.47c-20.77-49.56-9.77-142.8-9.77-142.8l2.63.6,25.41,5.76,5.25,4.4h0l66.69,55.83,3.66,3.06,7.1,5.94,2.93,15.3,1,5,5.45,28.46L256,471C256.47,477.4,254.3,483,250.42,487.88Z"/><path class="cls-6" d="M364.46,488q-7.24,3.41-14.74,6.35A254.59,254.59,0,0,1,288.46,510h0c-11.77-4.51-23.38-10.74-30-19.08-3.88-4.88-6-10.48-5.56-16.88l.5-2.62,5.45-28.46,1-5,2.93-15.3,7.1-5.94,3.66-3.06,66.69-55.83h0l5.25-4.4,25.41-5.76,2.63-.6S384.21,438,364.46,488Z"/><circle class="cls-8" cx="376.58" cy="318.78" r="25.24"/><circle class="cls-9" cx="376.58" cy="318.78" r="10.91"/><path class="cls-10" d="M349.72,494.3A255.44,255.44,0,0,1,256,512a258.06,258.06,0,0,1-40.64-3.21,254.36,254.36,0,0,1-53.1-14.5,74.1,74.1,0,0,1,56.38-25.91h74.7A74.07,74.07,0,0,1,349.72,494.3Z"/><rect class="cls-9" x="224.44" y="410.09" width="63.08" height="77.8" rx="14.85"/><path class="cls-8" d="M287.53,410.09v68.19a9.6,9.6,0,0,1-9.6,9.6H239V410.09Z"/><circle class="cls-9" cx="135.39" cy="318.78" r="25.24"/><circle class="cls-11" cx="135.39" cy="318.78" r="10.91"/><path class="cls-9" d="M376.58,259.88v59.6A120.59,120.59,0,0,1,270,439.26a122.34,122.34,0,0,1-14,.81A120.58,120.58,0,0,1,135.39,319.48v-59.6a86.23,86.23,0,0,1,86.24-86.24h68.71A86.24,86.24,0,0,1,376.58,259.88Z"/><path class="cls-8" d="M376.58,259.88v59.6A120.59,120.59,0,0,1,270,439.26,120.59,120.59,0,0,1,163.43,319.48v-59.6a86.24,86.24,0,0,1,86.24-86.24h40.67A86.24,86.24,0,0,1,376.58,259.88Z"/><rect class="cls-12" x="195.56" y="293.89" width="27.11" height="42.07" rx="13.56"/><circle class="cls-13" cx="209.11" cy="306.28" r="7.01"/><path class="cls-12" d="M197.81,306.28h-.11c-.45,0-11-.69-15.28-10.11a2.11,2.11,0,0,1,3.84-1.74c3.22,7.12,11.57,7.65,11.66,7.65a2.11,2.11,0,0,1-.11,4.21Z"/><path class="cls-12" d="M204,300.43a1.72,1.72,0,0,1-.39,0c-.3-.05-7.33-1.5-10-9.83a2.1,2.1,0,1,1,4-1.29c1.93,6,6.76,7,6.81,7a2.1,2.1,0,0,1-.4,4.17Z"/><rect class="cls-12" x="298.32" y="293.89" width="27.11" height="42.07" rx="13.56" transform="translate(623.75 629.84) rotate(-180)"/><circle class="cls-13" cx="311.87" cy="306.28" r="7.01"/><path class="cls-12" d="M323.18,306.28h.11c.45,0,11-.69,15.27-10.11a2.1,2.1,0,1,0-3.83-1.74c-3.22,7.12-11.58,7.65-11.66,7.65a2.11,2.11,0,0,0,.11,4.21Z"/><path class="cls-12" d="M317,300.43a1.75,1.75,0,0,0,.4,0c.3-.05,7.33-1.5,10-9.83a2.1,2.1,0,1,0-4-1.29c-1.94,6-6.76,7-6.81,7a2.1,2.1,0,0,0,.39,4.17Z"/><rect class="cls-11" x="247.14" y="330.11" width="27.11" height="12.85" rx="6.43"/><path class="cls-14" d="M287.73,370.57v9.07a27.21,27.21,0,0,1-20.79,26.46,26.87,26.87,0,0,1-6.45.77,27.23,27.23,0,0,1-27.23-27.23v-9.07Z"/><path class="cls-15" d="M287.73,370.57v9.07a27.21,27.21,0,0,1-20.79,26.46,27.23,27.23,0,0,1-20.8-26.46v-9.07Z"/><path class="cls-10" d="M281.89,396.5a27.2,27.2,0,0,1-14.95,9.6,26.87,26.87,0,0,1-6.45.77,27.16,27.16,0,0,1-21.38-10.37,30.17,30.17,0,0,1,9.94-4.61,43.73,43.73,0,0,1,11.44-1.48C269.13,390.41,276.85,392.79,281.89,396.5Z"/><path class="cls-16" d="M260.5,370.57H233.26l13-8.09a9.28,9.28,0,0,1,13.45,4,10.47,10.47,0,0,1,.82,4.08Z"/><path class="cls-16" d="M260.3,370.57h27.24l-13-8.09a9.27,9.27,0,0,0-13.44,4,10.47,10.47,0,0,0-.82,4.08Z"/><path class="cls-6" d="M260.62,196.52a51.52,51.52,0,0,1-44.72,51.06,50.72,50.72,0,0,1-6.79.45,51.51,51.51,0,0,1,0-103,52.44,52.44,0,0,1,6.79.44A51.53,51.53,0,0,1,260.62,196.52Z"/><path class="cls-7" d="M260.62,196.52a51.52,51.52,0,0,1-44.72,51.06,51.51,51.51,0,0,1,0-102.13A51.53,51.53,0,0,1,260.62,196.52Z"/><circle class="cls-7" cx="141" cy="249.98" r="40.36"/><circle class="cls-6" cx="152.52" cy="203.89" r="34.61"/><circle class="cls-7" cx="163.43" cy="203.89" r="34.61"/><circle class="cls-7" cx="254.41" cy="173.64" r="49.02"/><circle class="cls-7" cx="377.3" cy="247.81" r="51.07"/><path class="cls-6" d="M387.52,297.07a51.07,51.07,0,0,1-14-100.17,51.06,51.06,0,1,0,17.8,100C390.06,297,388.8,297.07,387.52,297.07Z"/><path class="cls-6" d="M377.82,202.61a62.91,62.91,0,0,1-57.64,62.69c-1.74.15-3.49.22-5.26.22a62.91,62.91,0,1,1,0-125.81c1.77,0,3.52.08,5.26.22A62.91,62.91,0,0,1,377.82,202.61Z"/><path class="cls-7" d="M377.82,202.61a62.91,62.91,0,0,1-57.64,62.69,62.9,62.9,0,0,1,0-125.37A62.91,62.91,0,0,1,377.82,202.61Z"/><path class="cls-7" d="M114.48,258V469.33q-6.33-4.18-12.4-8.76a257.51,257.51,0,0,1-36.47-33.44l5.31-18.36.2-.71,1-3.3,1.8-6.23L86.76,354l1.33-4.62.64-2.2,1.94-6.72,9-31,1.33-4.58.23-.81.5-1.72,9.94-34.42,1-3.54.12-.45,1.44-5Z"/><path class="cls-7" d="M446.36,427.17a257,257,0,0,1-36.44,33.4q-6.07,4.59-12.44,8.81V258l1.71,5.91,1.15,4h0l7.12,24.6,2.82,9.79,2.06,7.12,10.9,37.72.63,2.18,4.41,15.25,3,10.42,8.6,29.74,1.17,4Z"/><path class="cls-6" d="M127.58,390.41c0,23.57-9.49,44.08-32.1,47.52a47.06,47.06,0,0,1-21.14-1.57q-4.49-4.5-8.73-9.23-3.75-4.17-7.29-8.49c-1.76-2.11-3.46-4.25-5.12-6.42q-6.21-8-11.75-16.54c-.13-1.41-.2-2.84-.2-4.28a47.06,47.06,0,0,1,54.23-46.53C118.09,348.33,127.58,366.86,127.58,390.41Z"/><path class="cls-7" d="M127.58,390.41c0,23.56-9.49,44.08-32.1,47.52a47.08,47.08,0,0,1,0-93.06C118.09,348.33,127.58,366.85,127.58,390.41Z"/><path class="cls-17" d="M267.44,130.65a21.26,21.26,0,0,1-16.24,20.67,20.87,20.87,0,0,1-5,.61,21.27,21.27,0,0,1-21.27-21.28c0-11.75,21.27-31.83,21.27-31.83s2.12,2,5,5.11C257.49,110.67,267.44,122.61,267.44,130.65Z"/><path class="cls-18" d="M267.44,130.65a21.26,21.26,0,0,1-16.24,20.67A21.26,21.26,0,0,1,235,130.65c0-8,10-20,16.25-26.72C257.49,110.67,267.44,122.61,267.44,130.65Z"/><ellipse class="cls-19" cx="251.2" cy="130.06" rx="5.02" ry="7.31"/><path class="cls-17" d="M221,173.46a15.57,15.57,0,0,1-11.9,15.14,14.9,14.9,0,0,1-3.68.45,15.58,15.58,0,0,1-15.58-15.59c0-8.6,15.58-23.31,15.58-23.31s1.55,1.46,3.68,3.74C213.7,158.83,221,167.57,221,173.46Z"/><path class="cls-18" d="M221,173.46a15.57,15.57,0,0,1-11.9,15.14,15.56,15.56,0,0,1-11.9-15.14c0-5.89,7.29-14.63,11.9-19.57C213.7,158.83,221,167.57,221,173.46Z"/><ellipse class="cls-19" cx="209.09" cy="173.03" rx="3.68" ry="5.35"/><path class="cls-17" d="M303.31,191a15.58,15.58,0,1,1-31.16,0c0-8.6,15.58-23.31,15.58-23.31s1.55,1.47,3.69,3.74C296,176.36,303.31,185.11,303.31,191Z"/><path class="cls-18" d="M303.31,191a15.58,15.58,0,0,1-11.89,15.15A15.59,15.59,0,0,1,279.51,191c0-5.88,7.29-14.63,11.91-19.57C296,176.36,303.31,185.11,303.31,191Z"/><ellipse class="cls-19" cx="291.41" cy="190.56" rx="3.68" ry="5.35"/><ellipse class="cls-13" cx="338.75" cy="189.05" rx="6.68" ry="23.46" transform="translate(-27.12 60.09) rotate(-9.75)"/><ellipse class="cls-13" cx="338.75" cy="189.05" rx="23.46" ry="6.68" transform="translate(-27.12 60.09) rotate(-9.75)"/><ellipse class="cls-13" cx="417.55" cy="379.06" rx="6.68" ry="23.46" transform="translate(-145.58 348.66) rotate(-39.14)"/><ellipse class="cls-13" cx="417.55" cy="379.06" rx="23.46" ry="6.68" transform="translate(-145.58 348.66) rotate(-39.14)"/><path class="cls-5" d="M296,3.12V22.56A26,26,0,0,1,275.5,48a25.15,25.15,0,0,1-5.54.6H221a26.84,26.84,0,0,1-3.82-.27A26.07,26.07,0,0,1,194.9,22.56V7.34c2.87-.71,5.76-1.36,8.67-2,2-.41,4-.8,6-1.16s4.1-.73,6.16-1a258.35,258.35,0,0,1,71.64-1.25C290.24,2.26,293.13,2.67,296,3.12Z"/><path class="cls-10" d="M290.14,38.42V39a26.07,26.07,0,0,1-14.63,9V74.39H231.76v-36Z"/><path class="cls-10" d="M296,3.12V22.56A26,26,0,0,1,275.5,48v.6H235.58a26.63,26.63,0,0,1-3.82-.27,26.05,26.05,0,0,1-22.23-25.77V4.21c2-.38,4.1-.73,6.16-1a258.35,258.35,0,0,1,71.64-1.25C290.24,2.26,293.13,2.67,296,3.12Z"/><rect class="cls-10" x="212.47" y="74.39" width="67.15" height="5.71" rx="2.86"/><ellipse class="cls-13" cx="100.78" cy="383.72" rx="6.68" ry="23.46" transform="matrix(0.94, -0.33, 0.33, 0.94, -120.27, 54.27)"/><ellipse class="cls-13" cx="100.78" cy="383.72" rx="23.46" ry="6.68" transform="translate(-120.27 54.27) rotate(-19.14)"/><path class="cls-4" d="M256.26,83V94.43a5.41,5.41,0,0,1-5.41,5.41h-5.73a5.41,5.41,0,0,1-5.41-5.41V83Z"/></g></svg>