<svg xmlns="http://www.w3.org/2000/svg" viewBox="0 0 64 64"><g id="_08-Note" data-name="08-Note"><rect x="1" y="51" width="58" height="4" style="fill:#d6e0eb"/><polygon points="1 55 1 51 59 51 59 53 6 53 6 54 59 54 59 55 1 55" style="fill:#8394b2"/><rect x="1" y="15" width="58" height="36" style="fill:#fbfbfb"/><path d="M1,15V51H59V45H34C19.088,45,7,33.912,7,19V15Z" style="fill:#edf4fa"/><path d="M1,4V15H59V4Zm12,7H5V7h8Zm14,0H19V7h8Zm14,0H33V7h8Zm14,0H47V7h8Z" style="fill:#e63b47"/><path d="M8,1h2a1,1,0,0,1,1,1V8a0,0,0,0,1,0,0H7A0,0,0,0,1,7,8V2A1,1,0,0,1,8,1Z" style="fill:#d6e0eb"/><path d="M10,6H9A1,1,0,0,1,8,5V2A1,1,0,0,1,9,1H8A1,1,0,0,0,7,2V8h4V5A1,1,0,0,1,10,6Z" style="fill:#a8b7d4"/><path d="M22,1h2a1,1,0,0,1,1,1V8a0,0,0,0,1,0,0H21a0,0,0,0,1,0,0V2A1,1,0,0,1,22,1Z" style="fill:#d6e0eb"/><path d="M24,6H23a1,1,0,0,1-1-1V2a1,1,0,0,1,1-1H22a1,1,0,0,0-1,1V8h4V5A1,1,0,0,1,24,6Z" style="fill:#a8b7d4"/><path d="M36,1h2a1,1,0,0,1,1,1V8a0,0,0,0,1,0,0H35a0,0,0,0,1,0,0V2A1,1,0,0,1,36,1Z" style="fill:#d6e0eb"/><path d="M38,6H37a1,1,0,0,1-1-1V2a1,1,0,0,1,1-1H36a1,1,0,0,0-1,1V8h4V5A1,1,0,0,1,38,6Z" style="fill:#a8b7d4"/><path d="M50,1h2a1,1,0,0,1,1,1V8a0,0,0,0,1,0,0H49a0,0,0,0,1,0,0V2A1,1,0,0,1,50,1Z" style="fill:#d6e0eb"/><path d="M52,6H51a1,1,0,0,1-1-1V2a1,1,0,0,1,1-1H50a1,1,0,0,0-1,1V8h4V5A1,1,0,0,1,52,6Z" style="fill:#a8b7d4"/><rect x="33" y="19" width="6" height="6" style="fill:#a8b7d4"/><rect x="45" y="19" width="6" height="6" style="fill:#a8b7d4"/><rect x="21" y="30" width="6" height="6" style="fill:#a8b7d4"/><rect x="9" y="30" width="6" height="6" style="fill:#a8b7d4"/><rect x="33" y="30" width="6" height="6" style="fill:#a8b7d4"/><rect x="45" y="30" width="6" height="6" style="fill:#a8b7d4"/><rect x="21" y="41" width="6" height="6" style="fill:#a8b7d4"/><rect x="9" y="41" width="6" height="6" style="fill:#a8b7d4"/><rect x="33" y="41" width="6" height="6" style="fill:#a8b7d4"/><rect x="45" y="41" width="6" height="6" style="fill:#a8b7d4"/><path d="M9,36h4.377a25.157,25.157,0,0,1-3.954-6H9Z" style="fill:#8394b2"/><path d="M27,47V44.149A27.6,27.6,0,0,1,21,41.9V47Z" style="fill:#8394b2"/><rect x="9" y="41" width="6" height="6" style="fill:#8394b2"/><path d="M39,47V45H34c-.335,0-.668-.012-1-.023V47Z" style="fill:#8394b2"/><rect x="45" y="45" width="6" height="2" style="fill:#8394b2"/><path d="M40.2,55.8l1.44,4.319-4.32,1.44s.72-.72-.72-2.16-2.16-.72-2.16-.72l1.44-4.319Z" style="fill:#ffd6bd"/><path d="M36.6,59.4c1.44,1.44.72,2.16.72,2.16L33,63l1.44-4.32S35.16,57.96,36.6,59.4Z" style="fill:#393d48"/><polygon points="54.61 41.402 51.72 38.512 54.61 35.632 60.37 41.392 57.49 44.282 54.61 41.402" style="fill:#e63b47"/><path d="M61.81,34.192a4.08,4.08,0,0,1,0,5.76l-1.44,1.44-5.76-5.76,1.44-1.44A4.076,4.076,0,0,1,61.81,34.192Z" style="fill:#d6e0eb"/><polygon points="57.49 44.282 41.64 60.12 40.2 55.801 54.61 41.402 57.49 44.282" style="fill:#4077de"/><polygon points="54.61 41.402 40.2 55.801 35.88 54.361 51.72 38.512 54.61 41.402" style="fill:#4aa4f2"/><path d="M58.414,40.586a2,2,0,0,1-2.828,0l-2.968-2.968-.9.894,2.89,2.89,2.88,2.88,2.88-2.89-1.381-1.381Z" style="fill:#b32e37"/><path d="M61.914,37.086a2,2,0,0,1-2.828,0l-2.958-2.958c-.024.024-.054.04-.078.064l-1.44,1.44,5.76,5.76,1.44-1.44a3.976,3.976,0,0,0,1.065-3.827Z" style="fill:#a8b7d4"/><path d="M40.2,55.8l-3.6,3.6h0c1.44,1.44.72,2.16.72,2.16l4.32-1.44L40.2,55.8Z" style="fill:#fec09b"/><path d="M36.6,59.4h0L33,63l4.32-1.44S38.04,60.84,36.6,59.4Z" style="fill:#222430"/><path d="M62.514,33.486a5.075,5.075,0,0,0-7.176,0L53.9,34.927l-2.88,2.88L35.174,53.651a.98.98,0,0,0-.237.392h0l-2.881,8.642A1,1,0,0,0,33,64a1.014,1.014,0,0,0,.316-.051l8.642-2.881,0-.011a.98.98,0,0,0,.394-.231L53,50.175V52h5v2H53v2h6a1,1,0,0,0,1-1V45H58.175l.018-.018,2.88-2.88,1.441-1.44a5.075,5.075,0,0,0,0-7.176ZM51.725,39.928,53.191,41.4,39.932,54.654l-2.2-.733ZM37.308,58.692a4.328,4.328,0,0,0-1.476-1.027l.681-2.042,2.9.966.966,2.9-2.043.681A4.337,4.337,0,0,0,37.308,58.692Zm-2.11.876a2.7,2.7,0,0,1,.7.538,2.669,2.669,0,0,1,.537.7l-1.85.617Zm6.881-1.3-.733-2.2L54.605,42.809l1.467,1.466ZM58,50H53.175L58,45.175Zm-.514-7.139-4.347-4.347,1.466-1.466L58.952,41.4ZM61.1,39.248l-.734.733-4.347-4.347.733-.734a3.148,3.148,0,0,1,4.348,0,3.076,3.076,0,0,1,0,4.348Z"/><path d="M2,44H0V55a1,1,0,0,0,1,1H32V54H2V52H32V50H2Z"/><rect x="58" y="28" width="2" height="2"/><path d="M2,16H58V26h2V4a1,1,0,0,0-1-1H56V5h2v9H2V5H4V3H1A1,1,0,0,0,0,4V42H2Z"/><path d="M4,11a1,1,0,0,0,1,1h8a1,1,0,0,0,1-1V7a1,1,0,0,0-1-1H12V5h8V6H19a1,1,0,0,0-1,1v4a1,1,0,0,0,1,1h8a1,1,0,0,0,1-1V7a1,1,0,0,0-1-1H26V5h8V6H33a1,1,0,0,0-1,1v4a1,1,0,0,0,1,1h8a1,1,0,0,0,1-1V7a1,1,0,0,0-1-1H40V5h8V6H47a1,1,0,0,0-1,1v4a1,1,0,0,0,1,1h8a1,1,0,0,0,1-1V7a1,1,0,0,0-1-1H54V2a2,2,0,0,0-2-2H50a2,2,0,0,0-2,2V3H40V2a2,2,0,0,0-2-2H36a2,2,0,0,0-2,2V3H26V2a2,2,0,0,0-2-2H22a2,2,0,0,0-2,2V3H12V2a2,2,0,0,0-2-2H8A2,2,0,0,0,6,2V6H5A1,1,0,0,0,4,7ZM53,9a1,1,0,0,0,1-1v2H48V8a1,1,0,0,0,1,1ZM50,2h2V7H50ZM39,9a1,1,0,0,0,1-1v2H34V8a1,1,0,0,0,1,1ZM36,2h2V7H36ZM25,9a1,1,0,0,0,1-1v2H20V8a1,1,0,0,0,1,1ZM22,2h2V7H22ZM8,2h2V7H8ZM6,8A1,1,0,0,0,7,9h4a1,1,0,0,0,1-1v2H6Z"/><path d="M40,19a1,1,0,0,0-1-1H33a1,1,0,0,0-1,1v6a1,1,0,0,0,1,1h6a1,1,0,0,0,1-1Zm-2,5H34V20h4Z"/><path d="M52,19a1,1,0,0,0-1-1H45a1,1,0,0,0-1,1v6a1,1,0,0,0,1,1h6a1,1,0,0,0,1-1Zm-2,5H46V20h4Z"/><path d="M16,30a1,1,0,0,0-1-1H9a1,1,0,0,0-1,1v6a1,1,0,0,0,1,1h6a1,1,0,0,0,1-1Zm-2,5H10V31h4Z"/><path d="M28,30a1,1,0,0,0-1-1H21a1,1,0,0,0-1,1v6a1,1,0,0,0,1,1h6a1,1,0,0,0,1-1Zm-2,5H22V31h4Z"/><path d="M39,29H33a1,1,0,0,0-1,1v6a1,1,0,0,0,1,1h6a1,1,0,0,0,1-1V30A1,1,0,0,0,39,29Zm-1,6H34V31h4Z"/><path d="M51,29H45a1,1,0,0,0-1,1v6a1,1,0,0,0,1,1h6a1,1,0,0,0,1-1V30A1,1,0,0,0,51,29Zm-1,6H46V31h4Z"/><path d="M15,40H9a1,1,0,0,0-1,1v6a1,1,0,0,0,1,1h6a1,1,0,0,0,1-1V41A1,1,0,0,0,15,40Zm-1,6H10V42h4Z"/><path d="M27,40H21a1,1,0,0,0-1,1v6a1,1,0,0,0,1,1h6a1,1,0,0,0,1-1V41A1,1,0,0,0,27,40Zm-1,6H22V42h4Z"/><path d="M33,48h6a1,1,0,0,0,1-1V41a1,1,0,0,0-1-1H33a1,1,0,0,0-1,1v6A1,1,0,0,0,33,48Zm1-6h4v4H34Z"/><polygon points="9.707 25.707 12 23.414 14.293 25.707 15.707 24.293 13.414 22 15.707 19.707 14.293 18.293 12 20.586 9.707 18.293 8.293 19.707 10.586 22 8.293 24.293 9.707 25.707"/><polygon points="21.707 25.707 24 23.414 26.293 25.707 27.707 24.293 25.414 22 27.707 19.707 26.293 18.293 24 20.586 21.707 18.293 20.293 19.707 22.586 22 20.293 24.293 21.707 25.707"/></g></svg>