<?xml version="1.0" encoding="iso-8859-1"?>
<!-- Uploaded to: SVG Repo, www.svgrepo.com, Generator: SVG Repo Mixer Tools -->
<svg height="800px" width="800px" version="1.1" id="Layer_1" xmlns="http://www.w3.org/2000/svg" xmlns:xlink="http://www.w3.org/1999/xlink" 
	 viewBox="0 0 512 512" xml:space="preserve">
<polygon points="365.432,163.724 258.272,79.236 151.704,163.708 141.768,151.18 258.248,58.844 375.336,151.164 "/>
<g>
	<circle style="fill:#E21B1B;" cx="258.266" cy="69.044" r="22.104"/>
	<polygon style="fill:#E21B1B;" points="471.76,144.836 258.128,144.836 253.872,144.836 40.24,144.836 0,185.076 0,465.061 
		253.872,465.061 258.128,465.061 512,465.061 512,185.076 	"/>
</g>
<g>
	<path style="fill:#FFFFFF;" d="M169.264,295.836c0,37.656-22.832,59.16-53.824,59.16c-31.664,0-51.656-24.168-51.656-57.16
		c0-34.496,21.656-58.824,53.32-58.824C149.928,239.012,169.264,263.844,169.264,295.836z M85.44,297.5
		c0,22.832,11.504,40.992,31.2,40.992c19.832,0,30.992-18.328,30.992-41.824c0-21.168-10.496-41.16-30.992-41.16
		C96.272,255.516,85.44,274.34,85.44,297.5z"/>
	<path style="fill:#FFFFFF;" d="M186.552,298.996c0-10.664-0.336-19.328-0.672-26.992h18l1,12.504h0.328
		c6.095-9.358,16.675-14.803,27.832-14.328c18.664,0,34.16,16,34.16,41.32c0,29.328-18.496,43.496-36.984,43.496
		c-8.955,0.455-17.538-3.625-22.84-10.856h-0.336v41.992h-20.488L186.552,298.996L186.552,298.996z M207.048,319.164
		c-0.036,1.909,0.187,3.815,0.664,5.664c1.951,8.372,9.403,14.304,18,14.328c12.992,0,20.656-10.832,20.656-26.824
		c0-14.336-6.992-26-20.16-26c-8.906,0.175-16.509,6.48-18.328,15.2c-0.509,1.677-0.778,3.416-0.8,5.168L207.048,319.164z"/>
	<path style="fill:#FFFFFF;" d="M298.488,318.324c0.504,14.664,12,21,24.992,21c7.665,0.202,15.299-1.042,22.504-3.664l3,14.16
		c-9.04,3.446-18.654,5.143-28.328,5c-26.328,0-41.832-16.168-41.832-40.984c0-22.496,13.664-43.656,39.664-43.656
		c26.32,0,34.984,21.656,34.984,39.488c0.03,2.902-0.192,5.801-0.664,8.664L298.488,318.324z M334.144,303.996
		c1.325-9.541-5.336-18.348-14.876-19.673c-0.638-0.089-1.28-0.142-1.924-0.16c-10.51,0.642-18.734,9.303-18.832,19.832
		L334.144,303.996L334.144,303.996z"/>
	<path style="fill:#FFFFFF;" d="M369.936,296.14c0-9.336-0.168-17.168-0.672-24.168h18l1,12.168h0.536
		c5.477-8.962,15.335-14.301,25.832-13.992c14.16,0,28.8,9.168,28.8,34.824v48.16h-20.504V307.34
		c0-11.664-4.336-20.496-15.496-20.496c-7.349,0.17-13.779,4.992-16,12c-0.623,2.164-0.893,4.414-0.8,6.664v47.656h-20.696V296.14z"
		/>
</g>
</svg>