<?xml version="1.0" encoding="iso-8859-1"?>
<!-- Uploaded to: SVG Repo, www.svgrepo.com, Generator: SVG Repo Mixer Tools -->
<svg height="800px" width="800px" version="1.1" id="Layer_1" xmlns="http://www.w3.org/2000/svg" xmlns:xlink="http://www.w3.org/1999/xlink" 
	 viewBox="0 0 512 512" xml:space="preserve">
<g transform="translate(1 1)">
	<path style="fill:#FFDD09;" d="M129.169,103.136c0,33.844-26.902,60.746-60.746,60.746S7.678,136.98,7.678,103.136
		S34.58,42.39,68.424,42.39S129.169,70.159,129.169,103.136"/>
	<path style="fill:#FFFFFF;" d="M25.034,103.136c0-30.373,22.563-55.539,52.068-59.878c-2.603,0-6.075-0.868-8.678-0.868
		c-33.844,0-60.746,26.902-60.746,60.746s26.902,60.746,60.746,60.746c2.603,0,6.075,0,8.678-0.868
		C47.597,159.542,25.034,133.508,25.034,103.136"/>
	<path style="fill:#54C9FD;" d="M94.458,103.136c0,14.753-11.281,26.034-26.034,26.034S42.39,117.888,42.39,103.136
		s11.281-26.034,26.034-26.034S94.458,89.251,94.458,103.136"/>
	<path style="fill:#FCC309;" d="M207.271,163.881c-33.844,0-60.746-26.902-60.746-60.746c0-32.976,26.034-59.878,59.01-60.746
		c-31.241-9.546-67.688-8.678-67.688-8.678s-37.315-1.736-68.556,8.678c32.976,0.868,59.878,27.769,59.878,60.746
		c0,33.844-26.902,60.746-60.746,60.746c-15.62,0-29.505-6.075-39.919-15.62C46.729,195.99,85.78,268.017,137.847,268.017
		s91.119-72.027,109.342-119.756C236.776,158.675,222.892,163.881,207.271,163.881"/>
	<g>
		<path style="fill:#FFDD09;" d="M268.017,103.136c0,33.844-26.902,60.746-60.746,60.746s-60.746-26.902-60.746-60.746
			s26.902-60.746,60.746-60.746S268.017,70.159,268.017,103.136"/>
		<path style="fill:#FFDD09;" d="M198.593,207.271c0,33.844-26.902,60.746-60.746,60.746s-60.746-26.902-60.746-60.746
			s26.902-60.746,60.746-60.746S198.593,174.295,198.593,207.271"/>
	</g>
	<path style="fill:#54C9FD;" d="M233.305,103.136c0,14.753-11.281,26.034-26.034,26.034c-14.753,0-26.034-11.281-26.034-26.034
		s11.281-26.034,26.034-26.034C222.024,77.102,233.305,89.251,233.305,103.136"/>
	<g>
		<path style="fill:#FFDD09;" d="M248.925,146.525c-21.695,51.2-60.746,121.492-111.078,121.492S48.464,197.725,26.769,146.525
			h-1.736c11.281,89.383,11.281,201.329,0,290.712c0,31.241,25.166,56.407,56.407,56.407h111.946
			c31.241,0,56.407-25.166,56.407-56.407c-11.281-89.383-11.281-201.329,0-290.712L248.925,146.525L248.925,146.525z"/>
		<path style="fill:#FFDD09;" d="M389.508,111.814c-5.207,0-8.678-3.471-8.678-8.678c0-19.092-15.62-34.712-34.712-34.712
			c-5.207,0-8.678-3.471-8.678-8.678s3.471-8.678,8.678-8.678c28.637,0,52.068,23.431,52.068,52.068
			C398.186,108.342,394.715,111.814,389.508,111.814z"/>
	</g>
	<path style="fill:#1CD759;" d="M245.454,389.508c-1.736-17.356-2.603-34.712-2.603-52.068H32.844
		c-0.868,17.356-1.736,34.712-2.603,52.068H245.454z"/>
	<path style="fill:#FFDD09;" d="M441.576,111.814c-5.207,0-8.678-3.471-8.678-8.678c0-28.637,23.431-52.068,52.068-52.068
		c5.207,0,8.678,3.471,8.678,8.678s-3.471,8.678-8.678,8.678c-19.092,0-34.712,15.62-34.712,34.712
		C450.254,108.342,446.783,111.814,441.576,111.814z"/>
	<path style="fill:#54C9FD;" d="M455.461,59.746H332.234c-6.942,0-12.149-5.207-12.149-12.149V28.505
		c0-6.942,5.207-12.149,12.149-12.149h123.227c6.942,0,12.149,5.207,12.149,12.149v19.092
		C467.61,54.539,462.403,59.746,455.461,59.746"/>
	<path style="fill:#33A9F8;" d="M481.495,16.356h-26.034c6.942,0,12.149,5.207,12.149,12.149v19.092
		c0,6.942-5.207,12.149-12.149,12.149h26.034c6.942,0,12.149-5.207,12.149-12.149V28.505
		C493.644,21.563,488.437,16.356,481.495,16.356"/>
	<g>
		<path style="fill:#54C9FD;" d="M498.851,16.356h-26.034c6.942,0,12.149,5.207,12.149,12.149v19.092
			c0,6.942-5.207,12.149-12.149,12.149h26.034c6.942,0,12.149-5.207,12.149-12.149V28.505C511,21.563,505.793,16.356,498.851,16.356
			"/>
		<path style="fill:#54C9FD;" d="M380.831,137.847h34.712v-34.712h-34.712V137.847z"/>
	</g>
	<path style="fill:#33A9F8;" d="M415.542,137.847h17.356v-34.712h-17.356V137.847z"/>
	<path style="fill:#54C9FD;" d="M432.898,137.847h17.356v-34.712h-17.356V137.847z"/>
	<path style="fill:#FFDD09;" d="M387.773,493.644L387.773,493.644c-23.431,0-16.488-19.959-15.62-43.39l15.62-312.407h27.769
		l17.356,312.407C433.766,473.685,411.203,493.644,387.773,493.644"/>
	<path style="fill:#FD9808;" d="M433.766,137.847h-19.092l15.62,312.407c0.868,19.959-13.017,37.315-31.241,42.522
		c3.471,0.868,6.075,0.868,9.546,0.868c23.431,0,42.522-19.959,41.654-43.39L433.766,137.847z"/>
	<path style="fill:#54C9FD;" d="M163.881,207.271c0,14.753-11.281,26.034-26.034,26.034s-26.034-11.281-26.034-26.034
		s11.281-26.034,26.034-26.034S163.881,193.386,163.881,207.271"/>
	<path style="fill:#FFDD09;" d="M450.254,137.847h-18.224l15.62,312.407c0.868,19.959-13.017,37.315-31.241,42.522
		c3.471,0.868,6.075,0.868,9.546,0.868c23.431,0,42.522-19.959,41.654-43.39L450.254,137.847z"/>
	<path style="fill:#FFFFFF;" d="M51.068,437.237c9.546-70.292,11.281-155.336,6.075-231.702
		c-12.149-19.092-21.695-39.919-29.505-58.142h-2.603c11.281,89.383,11.281,201.329,0,290.712c0,31.241,25.166,56.407,56.407,56.407
		h26.034C76.234,493.644,51.068,468.478,51.068,437.237"/>
	<path d="M406.864,502.322c-13.885,0-26.902-5.207-36.447-15.62c-9.546-10.414-14.753-23.431-13.885-37.315l15.62-321.085h69.424
		l15.62,321.085c0.868,13.885-4.339,26.902-13.885,37.315C433.766,497.115,420.749,502.322,406.864,502.322z M389.508,146.525
		l-15.62,304.597c-0.868,8.678,2.603,17.356,8.678,24.298c6.075,6.942,14.753,10.414,23.431,10.414
		c8.678,0,17.356-3.471,23.431-10.414c6.075-6.942,9.546-14.753,8.678-24.298L424.22,146.525H389.508z"/>
	<path d="M441.576,146.525h-69.424V94.458h69.424V146.525z M389.508,129.169h34.712v-17.356h-34.712V129.169z"/>
	<path d="M380.831,111.814c-5.207,0-8.678-3.471-8.678-8.678c0-19.092-15.62-34.712-34.712-34.712c-5.207,0-8.678-3.471-8.678-8.678
		s3.471-8.678,8.678-8.678c28.637,0,52.068,23.431,52.068,52.068C389.508,108.342,386.037,111.814,380.831,111.814z"/>
	<path d="M432.898,111.814c-5.207,0-8.678-3.471-8.678-8.678c0-28.637,23.431-52.068,52.068-52.068c5.207,0,8.678,3.471,8.678,8.678
		s-3.471,8.678-8.678,8.678c-19.092,0-34.712,15.62-34.712,34.712C441.576,108.342,438.105,111.814,432.898,111.814z"/>
	<path d="M481.495,68.424H332.234c-11.281,0-20.827-9.546-20.827-20.827V28.505c0-11.281,9.546-20.827,20.827-20.827h149.261
		c11.281,0,20.827,9.546,20.827,20.827v19.092C502.322,59.746,492.776,68.424,481.495,68.424z M332.234,25.034
		c-1.736,0-3.471,1.736-3.471,3.471v19.092c0,1.736,1.736,3.471,3.471,3.471h149.261c1.736,0,3.471-1.736,3.471-3.471V28.505
		c0-1.736-1.736-3.471-3.471-3.471H332.234z"/>
	<path d="M449.386,302.729h-85.912l3.471-69.424h78.969L449.386,302.729z M382.566,285.373h49.464l-1.736-34.712h-45.993
		L382.566,285.373z"/>
	<path d="M194.254,502.322H81.441c-36.447,0-65.953-29.505-65.953-65.085v-0.868c12.149-89.383,12.149-199.593,0.868-288.976
		c0-2.603,0.868-5.207,1.736-6.942c0.868-1.736,4.339-2.603,6.942-2.603h1.736c3.471,0,6.942,1.736,7.81,5.207
		c18.224,43.39,56.407,116.285,103.268,116.285s84.176-72.895,103.268-116.285c1.736-3.471,4.339-5.207,7.81-5.207h1.736
		c2.603,0,5.207,0.868,6.942,2.603c1.736,1.736,1.736,5.207,1.736,6.942c-11.281,88.515-11.281,199.593,0,288.108v0.868
		C259.339,472.817,229.834,502.322,194.254,502.322z M33.712,437.237c0,26.034,21.695,47.729,47.729,47.729h111.946
		c26.034,0,47.729-21.695,47.729-47.729c-9.546-75.498-11.281-166.617-4.339-246.454c-24.298,45.125-58.142,85.912-99.797,85.912
		s-74.631-40.786-99.797-85.912C44.993,271.488,43.258,361.739,33.712,437.237z"/>
	<path d="M68.424,172.559C30.241,172.559-1,141.319-1,103.136s31.241-69.424,69.424-69.424s69.424,31.241,69.424,69.424
		S106.607,172.559,68.424,172.559z M68.424,51.068c-28.637,0-52.068,23.431-52.068,52.068s23.431,52.068,52.068,52.068
		s52.068-23.431,52.068-52.068S97.061,51.068,68.424,51.068z"/>
	<path d="M137.847,276.695c-38.183,0-69.424-31.241-69.424-69.424s31.241-69.424,69.424-69.424s69.424,31.241,69.424,69.424
		S176.031,276.695,137.847,276.695z M137.847,155.203c-28.637,0-52.068,23.431-52.068,52.068s23.431,52.068,52.068,52.068
		s52.068-23.431,52.068-52.068S166.485,155.203,137.847,155.203z"/>
	<path d="M207.271,172.559c-38.183,0-69.424-31.241-69.424-69.424s31.241-69.424,69.424-69.424s69.424,31.241,69.424,69.424
		S245.454,172.559,207.271,172.559z M207.271,51.068c-28.637,0-52.068,23.431-52.068,52.068s23.431,52.068,52.068,52.068
		s52.068-23.431,52.068-52.068S235.908,51.068,207.271,51.068z"/>
	<path d="M137.847,276.695c-62.481,0-103.268-87.647-118.02-124.963c-1.736-3.471,0-7.81,3.471-10.414
		c3.471-2.603,7.81-1.736,10.414,0.868c9.546,8.678,21.695,13.017,34.712,13.017c28.637,0,52.068-23.431,52.068-52.068
		c0-27.769-22.563-51.2-51.2-52.068c-4.339,0-7.81-3.471-8.678-7.81c0-3.471,2.603-7.81,6.075-8.678
		c32.108-10.414,69.424-9.546,71.159-9.546c0.868,0,38.183-0.868,70.292,9.546c4.339,0.868,6.942,5.207,6.075,9.546
		c-0.868,4.339-4.339,6.942-8.678,7.81c-27.77,0-50.332,23.431-50.332,51.2c0,28.637,23.431,52.068,52.068,52.068
		c13.017,0,25.166-4.339,34.712-13.017c2.603-2.603,7.81-2.603,10.414-0.868c3.471,2.603,4.339,6.942,3.471,10.414
		C241.115,189.915,200.329,276.695,137.847,276.695z M46.729,169.088c17.356,35.58,49.464,90.251,91.119,90.251
		s74.631-54.671,91.119-90.251c-6.942,2.603-14.753,3.471-21.695,3.471c-38.183,0-69.424-31.241-69.424-69.424
		c0-25.166,13.017-46.861,32.976-59.01c-18.224-1.736-32.108-1.736-32.108-1.736c-0.868,0-15.62-0.868-33.844,1.736
		c19.959,12.149,32.976,34.712,32.976,59.01c0,38.183-31.241,69.424-69.424,69.424C60.614,172.559,53.671,171.692,46.729,169.088z"
		/>
	<path d="M68.424,137.847c-19.092,0-34.712-15.62-34.712-34.712s15.62-34.712,34.712-34.712s34.712,15.62,34.712,34.712
		S87.515,137.847,68.424,137.847z M68.424,85.78c-9.546,0-17.356,7.81-17.356,17.356s7.81,17.356,17.356,17.356
		s17.356-7.81,17.356-17.356S77.969,85.78,68.424,85.78z"/>
	<path d="M207.271,137.847c-19.092,0-34.712-15.62-34.712-34.712s15.62-34.712,34.712-34.712s34.712,15.62,34.712,34.712
		S226.363,137.847,207.271,137.847z M207.271,85.78c-9.546,0-17.356,7.81-17.356,17.356s7.81,17.356,17.356,17.356
		c9.546,0,17.356-7.81,17.356-17.356S216.817,85.78,207.271,85.78z"/>
	<path d="M137.847,241.983c-19.092,0-34.712-15.62-34.712-34.712s15.62-34.712,34.712-34.712s34.712,15.62,34.712,34.712
		S156.939,241.983,137.847,241.983z M137.847,189.915c-9.546,0-17.356,7.81-17.356,17.356s7.81,17.356,17.356,17.356
		s17.356-7.81,17.356-17.356S147.393,189.915,137.847,189.915z"/>
	<path d="M245.454,398.186H30.241c-2.603,0-4.339-0.868-6.075-2.603c-1.736-1.736-2.603-4.339-2.603-6.942
		c1.736-16.488,2.603-33.844,2.603-52.068c0-4.339,4.339-8.678,8.678-8.678h210.007c4.339,0,8.678,3.471,8.678,8.678
		c0.868,17.356,1.736,34.712,2.603,52.068c0,2.603-0.868,5.207-2.603,6.942C250.661,397.319,248.058,398.186,245.454,398.186z
		 M38.919,380.831h196.99c-0.868-11.281-1.736-22.563-1.736-34.712H41.522C40.654,358.268,39.786,369.549,38.919,380.831z"/>
</g>
</svg>